<?xml version="1.0" encoding="UTF-8" standalone="no"?><!DOCTYPE svg PUBLIC "-//W3C//DTD SVG 1.1//EN" "http://www.w3.org/Graphics/SVG/1.1/DTD/svg11.dtd"><svg width="100%" height="100%" viewBox="0 0 86 45" version="1.1" xmlns="http://www.w3.org/2000/svg" xmlns:xlink="http://www.w3.org/1999/xlink" xml:space="preserve" xmlns:serif="http://www.serif.com/" style="fill-rule:evenodd;clip-rule:evenodd;stroke-linejoin:round;stroke-miterlimit:2;"><path d="M85.657,34.551c-29.837,-2.234 -54.154,12.52 -85.657,9.663l0,-34.34c29.785,1.663 55.508,-12.105 85.657,-9.559l0,34.236Zm-75.451,6.338c3.072,-0.052 4.895,-1.974 4.738,-4.779l0,-6.286c0,-0.52 -0.052,-0.571 -0.156,-0.935c-0.104,-0.364 -0.26,-0.623 -0.469,-0.883c-0.208,-0.208 -0.521,-0.416 -0.937,-0.572c-0.365,-0.156 -0.885,-0.312 -1.458,-0.416c1.093,-0.26 1.875,-0.623 2.291,-1.143c0.469,-0.52 0.677,-1.247 0.677,-2.234l0,-6.546c0,-1.403 -0.312,-2.338 -0.989,-2.961c-0.677,-0.571 -1.718,-0.831 -3.176,-0.779c-2.604,0.104 -3.853,0.156 -6.457,0.156c-0.052,8.884 -0.156,18.183 -0.26,27.223c2.343,0.208 3.801,0.208 6.196,0.156Zm-1.875,-23.638c0.469,0 0.729,0 1.198,-0.052c0.573,0 0.989,0.104 1.198,0.312c0.208,0.26 0.312,0.831 0.312,1.766l0,3.741c0,0.52 -0.052,0.935 -0.104,1.247c-0.052,0.312 -0.156,0.572 -0.26,0.727c-0.104,0.156 -0.26,0.26 -0.521,0.364c-0.208,0.052 -0.469,0.052 -0.781,0.052l-1.093,0c0,-2.701 0,-5.455 0.052,-8.156Zm-0.104,11.585l1.406,0c0.573,0 0.989,0.156 1.146,0.416c0.156,0.312 0.26,0.935 0.26,1.922l0,3.637c0,0.52 0,0.883 -0.052,1.195c-0.052,0.312 -0.104,0.571 -0.208,0.779c-0.104,0.156 -0.26,0.312 -0.469,0.364c-0.208,0.052 -0.469,0.104 -0.833,0.104l-1.25,0c-0.052,-2.701 0,-5.767 0,-8.416Zm12.028,-0.675c0.521,-0.052 0.729,-0.104 1.302,-0.156c0.469,-0.052 0.833,0.052 1.041,0.26c0.208,0.26 0.312,0.675 0.312,1.351l0,10.287c1.354,-0.156 2.656,-0.364 3.957,-0.572l0,-10.546c0,-1.766 -0.729,-2.598 -2.135,-2.598c0.833,-0.416 1.406,-0.883 1.666,-1.403c0.312,-0.52 0.417,-1.351 0.417,-2.494l0,-6.598c0,-0.727 -0.052,-1.299 -0.104,-1.611c-0.052,-0.312 -0.208,-0.623 -0.417,-0.935c-0.312,-0.416 -0.729,-0.727 -1.198,-0.883c-0.26,-0.104 -0.521,-0.156 -0.833,-0.156l-0.833,0c-0.469,0.052 -0.677,0.104 -1.145,0.156c-2.447,0.364 -3.645,0.519 -6.092,0.779c-0.052,8.105 0,18.962 -0.052,27.586c1.354,-0.104 2.656,-0.26 3.957,-0.364c0.156,-4.052 0.156,-8.988 0.156,-12.105Zm0,-11.845c0.521,-0.052 0.833,-0.104 1.354,-0.156c0.573,-0.052 0.937,0.052 1.093,0.312c0.156,0.312 0.26,2.13 0.26,3.117l0,0.416c-0.052,1.091 -0.052,2.026 -0.104,3.065c0,0.779 -0.469,1.247 -1.458,1.351c-0.469,0.052 -0.677,0.104 -1.146,0.156l0,-8.26Zm11.664,17.352c1.666,-0.312 2.499,-0.468 4.218,-0.831c0.208,1.714 0.364,2.909 0.573,4.572c1.354,-0.26 2.656,-0.572 4.01,-0.883c-0.989,-8.884 -2.031,-18.235 -3.072,-27.119c-2.447,0.52 -4.79,0.987 -7.238,1.455c-0.989,9.247 -2.031,19.066 -3.02,28.314c1.354,-0.208 2.656,-0.468 4.01,-0.727c0.208,-1.714 0.312,-3.013 0.521,-4.779Zm1.927,-19.586l0.26,-0.052c0.573,4.935 1.145,9.871 1.666,14.806c-1.354,0.26 -2.031,0.416 -3.385,0.675c0.469,-5.143 0.989,-10.286 1.458,-15.43Zm11.352,9.507c1.041,-0.208 1.562,-0.312 2.656,-0.572l0,11.949c1.302,-0.312 2.656,-0.572 3.957,-0.883c0.052,-8.728 0.052,-19.274 0.104,-27.586c-1.614,0.312 -2.395,0.468 -4.009,0.779c0,3.792 0,7.845 -0.052,11.637c-1.041,0.208 -1.562,0.312 -2.656,0.572l0,-11.637c-1.614,0.312 -2.395,0.52 -4.01,0.831c0,8.312 -0.052,19.014 -0.052,27.742c1.302,-0.312 2.656,-0.571 3.957,-0.883c0.052,-3.844 0.052,-8.728 0.104,-11.949Zm11.976,-6.494l0.052,0c0.989,5.507 1.718,10.027 2.604,15.482c0.625,-0.104 1.25,-0.208 1.927,-0.312c0.937,-5.559 1.614,-9.871 2.864,-16.053l0.052,0c-0.052,4.883 -0.052,10.546 -0.104,15.637c1.302,-0.208 2.656,-0.364 3.957,-0.52c0.052,-8.676 0.156,-18.858 0.208,-27.223c-1.927,0.156 -2.864,0.26 -4.791,0.52c-1.041,4.78 -2.031,9.715 -3.072,14.494c-0.989,-4.468 -1.979,-9.143 -2.968,-13.611c-1.875,0.312 -2.812,0.468 -4.738,0.831c-0.052,8.416 -0.052,18.806 -0.104,27.534c1.354,-0.26 2.708,-0.572 4.062,-0.831c0,-5.143 0.052,-11.066 0.052,-15.949Zm16.35,9.351c1.666,-0.104 2.5,-0.156 4.166,-0.156c0.208,1.766 0.312,2.702 0.469,4.416c1.302,0 2.656,0 3.957,0.052c-0.885,-8.988 -1.823,-18.027 -2.76,-27.067c-2.395,0 -4.843,0 -7.186,0.156c-1.041,9.091 -2.083,18.287 -3.124,27.43c1.302,-0.156 2.604,-0.26 3.957,-0.364c0.208,-1.714 0.312,-2.702 0.521,-4.468Zm2.083,-19.274l0.208,0c0.521,5.143 1.041,9.975 1.562,15.118c-1.354,0 -2.031,0.052 -3.385,0.104c0.521,-5.195 1.041,-10.027 1.614,-15.222Z"/></svg>