<?xml version="1.0" encoding="UTF-8" standalone="no"?><!DOCTYPE svg PUBLIC "-//W3C//DTD SVG 1.1//EN" "http://www.w3.org/Graphics/SVG/1.1/DTD/svg11.dtd"><svg width="100%" height="100%" viewBox="0 0 500 124" version="1.1" xmlns="http://www.w3.org/2000/svg" xmlns:xlink="http://www.w3.org/1999/xlink" xml:space="preserve" xmlns:serif="http://www.serif.com/" style="fill-rule:evenodd;clip-rule:evenodd;stroke-linejoin:round;stroke-miterlimit:2;"><g transform="matrix(0.18,0,0,0.18,0,-225)"><g id="Página-5" serif:id="Página 5" transform="matrix(5.555556,0,0,5.555556,0,1250)"><rect x="0" y="0" width="500" height="123.381" style="fill:none;"/><clipPath id="_clip1"><rect x="0" y="0" width="500" height="123.381"/></clipPath><g clip-path="url(#_clip1)"><g id="Capa-1" serif:id="Capa 1"><g transform="matrix(1,0,0,1,45.2716,56.5336)"><path d="M0,-0.013c-0.921,5.605 -3.224,9.961 -6.921,13.066c-3.684,3.118 -8.329,4.671 -13.921,4.671l-7.013,0l6.237,-35.461l7.092,-0c4.789,0 8.473,1.158 11.065,3.5c2.606,2.329 3.895,5.632 3.895,9.908c-0,1.158 -0.145,2.592 -0.434,4.316m12.421,-18.987c-2.171,-3.605 -5.276,-6.395 -9.342,-8.381c-4.066,-2 -8.895,-2.987 -14.5,-2.987l-22.75,0l-10.724,60.723l22.75,0c6.342,0 12.158,-1.263 17.434,-3.802c5.277,-2.54 9.632,-6.119 13.066,-10.724c3.421,-4.618 5.658,-9.895 6.698,-15.842c0.408,-2.526 0.605,-4.632 0.605,-6.303c0,-4.855 -1.079,-9.079 -3.237,-12.684" style="fill-rule:nonzero;"/></g><g transform="matrix(1,0,0,1,99.9953,62.7574)"><path d="M0,0c-0.684,3.684 -2.25,6.605 -4.671,8.737c-2.421,2.131 -5.105,3.197 -8.039,3.197c-2.487,0 -4.54,-0.816 -6.185,-2.46c-1.644,-1.645 -2.473,-3.882 -2.473,-6.711c0,-0.855 0.092,-1.816 0.263,-2.855c0.631,-3.684 2.158,-6.579 4.592,-8.684c2.421,-2.106 5.092,-3.158 8.039,-3.158c2.54,0 4.632,0.802 6.277,2.421c1.644,1.605 2.46,3.829 2.46,6.658c0,0.868 -0.092,1.816 -0.263,2.855m4.237,-24.132l-1.211,6.829c-1.026,-2.25 -2.71,-4.065 -5.013,-5.447c-2.302,-1.382 -5.158,-2.079 -8.566,-2.079c-3.973,0 -7.75,1.013 -11.329,3.026c-3.578,2.027 -6.631,4.908 -9.171,8.645c-2.539,3.763 -4.236,8.105 -5.105,13.066c-0.342,2.079 -0.513,4.039 -0.513,5.882c0,3.868 0.711,7.223 2.158,10.078c1.447,2.856 3.474,5.066 6.105,6.619c2.619,1.566 5.632,2.342 9.04,2.342c3.394,0 6.513,-0.697 9.342,-2.079c2.816,-1.382 5.158,-3.197 7,-5.447l-1.29,6.829l14.79,0l8.566,-48.264l-14.803,0Z" style="fill-rule:nonzero;"/></g><g transform="matrix(1,0,0,1,143.1927,62.8362)"><path d="M0,-11.934l9.684,0l2.171,-12.276l-9.697,0l2.079,-11.777l-14.79,0l-2.079,11.777l-5.881,0l-2.158,12.276l5.882,0l-3.461,19.21c-0.29,1.843 -0.434,3.369 -0.434,4.579c0,8.132 4.842,12.198 14.526,12.198l7.526,0l2.25,-12.54l-5.276,0c-1.381,0 -2.381,-0.237 -2.987,-0.697c-0.605,-0.461 -0.908,-1.211 -0.908,-2.25c0,-0.461 0.04,-0.829 0.092,-1.118l3.461,-19.382Z" style="fill-rule:nonzero;"/></g><g transform="matrix(1,0,0,1,242.3638,55.3627)"><path d="M0,2.329c-2.079,-1.118 -4.816,-2.382 -8.224,-3.763c-3,-1.145 -5.368,-2.197 -7.131,-3.158c-1.763,-0.947 -3.237,-2.158 -4.408,-3.632c-1.184,-1.473 -1.776,-3.302 -1.776,-5.486c0,-3.987 1.46,-7.106 4.368,-9.395c2.908,-2.277 6.618,-3.408 11.118,-3.408c2.935,0 5.421,0.526 7.435,1.592c2.026,1.066 3.5,2.421 4.46,4.066c0.948,1.645 1.395,3.25 1.342,4.802l3.974,0c0.118,-2.368 -0.461,-4.592 -1.724,-6.697c-1.276,-2.105 -3.21,-3.816 -5.802,-5.105c-2.593,-1.303 -5.711,-1.948 -9.342,-1.948c-3.751,0 -7.053,0.645 -9.908,1.948c-2.856,1.289 -5.119,3.052 -6.79,5.276c-1.671,2.224 -2.658,4.684 -2.934,7.395c-0.118,1.039 -0.184,1.763 -0.184,2.158c0,2.776 0.684,5.066 2.039,6.881c1.355,1.816 3.013,3.263 4.974,4.329c1.96,1.066 4.618,2.263 7.96,3.592c3.171,1.211 5.671,2.303 7.487,3.277c1.816,0.987 3.356,2.289 4.619,3.894c1.276,1.619 1.908,3.671 1.908,6.145c0,4.158 -1.422,7.487 -4.277,9.987c-2.855,2.513 -6.658,3.763 -11.381,3.763c-3.514,0 -6.342,-0.631 -8.474,-1.895c-2.145,-1.276 -3.605,-2.842 -4.421,-4.723c-0.803,-1.869 -1.145,-3.763 -1.04,-5.658l-3.881,0c-0.237,2.881 0.276,5.5 1.552,7.868c1.264,2.369 3.277,4.237 6.014,5.619c2.736,1.394 6.039,2.079 9.908,2.079c3.802,0 7.144,-0.671 10.026,-2.027c2.881,-1.355 5.158,-3.171 6.789,-5.447c1.645,-2.29 2.645,-4.803 2.987,-7.579c0.119,-1.263 0.171,-2.132 0.171,-2.592c0,-3 -0.71,-5.5 -2.158,-7.487c-1.447,-1.987 -3.197,-3.539 -5.276,-4.671" style="fill-rule:nonzero;"/></g><g transform="matrix(1,0,0,1,271.2454,71.5729)"><path d="M0,-28.276l13.829,0l0.618,-3.382l-13.842,0l2.066,-11.934l-3.974,0l-2.079,11.934l-7.092,0l-0.605,3.382l7.092,0l-5.539,31.053c-0.224,1.329 -0.342,2.658 -0.342,3.973c0,3.066 0.829,5.25 2.46,6.579c1.645,1.329 4.197,1.987 7.658,1.987l5.882,0l0.605,-3.46l-5.184,0c-2.658,0 -4.553,-0.421 -5.711,-1.25c-1.158,-0.842 -1.737,-2.29 -1.737,-4.369c0,-1.158 0.119,-2.302 0.355,-3.46l5.54,-31.053Z" style="fill-rule:nonzero;"/></g><g transform="matrix(1,0,0,1,303.5085,84.0342)"><path d="M0,-42.211c-3.263,1.895 -5.816,4.645 -7.658,8.211l1.816,-10.119l-3.895,0l-8.395,46.974l3.895,0l4.855,-27.079c1.027,-5.934 3.303,-10.211 6.829,-12.842c3.514,-2.619 7.579,-3.935 12.198,-3.935l1.21,0l0.777,-4.065c-4.5,0 -8.382,0.947 -11.632,2.855" style="fill-rule:nonzero;"/></g><g transform="matrix(1,0,0,1,354.1795,65.0861)"><path d="M0,-3.276l-36.947,0c0.868,-4.158 2.421,-7.671 4.671,-10.566c2.25,-2.881 4.908,-5.039 7.96,-6.487c3.053,-1.434 6.224,-2.157 9.513,-2.157c4.448,0 8.119,1.21 11.04,3.631c2.908,2.421 4.368,5.908 4.368,10.474c-0,1.723 -0.21,3.421 -0.605,5.105m2.368,-14.066c-1.407,-2.566 -3.513,-4.605 -6.315,-6.145c-2.79,-1.526 -6.185,-2.289 -10.158,-2.289c-4.448,0 -8.553,0.974 -12.329,2.895c-3.776,1.934 -6.961,4.723 -9.553,8.355c-2.605,3.632 -4.329,7.895 -5.197,12.803c-0.342,1.908 -0.513,3.75 -0.513,5.539c0,5.763 1.736,10.316 5.223,13.658c3.5,3.355 8.119,5.026 13.895,5.026c5.816,0 10.882,-1.486 15.171,-4.46c4.303,-2.974 7.369,-6.842 9.224,-11.632l-4.066,0c-1.5,3.921 -4.026,7.027 -7.579,9.303c-3.539,2.276 -7.592,3.408 -12.145,3.408c-4.565,0 -8.342,-1.316 -11.342,-3.974c-3,-2.658 -4.5,-6.46 -4.5,-11.421c0,-0.803 0.119,-2.132 0.356,-3.974l40.565,0c0.356,-1.039 0.698,-2.605 1.04,-4.671c0.237,-1.158 0.342,-2.421 0.342,-3.816c0,-3.171 -0.698,-6.039 -2.119,-8.605" style="fill-rule:nonzero;"/></g><g transform="matrix(1,0,0,1,408.1401,63.5337)"><path d="M0,-0.171c-0.75,4.158 -2.224,7.803 -4.447,10.947c-2.224,3.145 -4.961,5.566 -8.224,7.264c-3.25,1.697 -6.697,2.552 -10.329,2.552c-4.961,0 -8.868,-1.395 -11.724,-4.197c-2.855,-2.803 -4.289,-6.711 -4.289,-11.724c0,-1.329 0.145,-2.934 0.434,-4.842c0.75,-4.263 2.211,-7.961 4.368,-11.079c2.172,-3.105 4.843,-5.487 8.053,-7.131c3.197,-1.645 6.697,-2.461 10.5,-2.461c4.855,0 8.75,1.447 11.684,4.368c2.948,2.908 4.408,6.816 4.408,11.711c-0,1.329 -0.145,2.855 -0.434,4.592m4.158,-23.447l-2.158,12.289c-0.75,-3.75 -2.645,-6.842 -5.671,-9.263c-3.026,-2.421 -7,-3.632 -11.895,-3.632c-4.381,0 -8.473,0.987 -12.289,2.948c-3.803,1.96 -6.987,4.75 -9.553,8.381c-2.566,3.645 -4.289,7.882 -5.145,12.724c-0.355,1.908 -0.526,3.724 -0.526,5.447c0,5.764 1.724,10.342 5.158,13.711c3.421,3.381 8,5.066 13.71,5.066c4.948,0 9.395,-1.224 13.316,-3.685c3.921,-2.447 6.895,-5.578 8.908,-9.381l-2.158,12.368l3.803,0l8.395,-46.973l-3.895,0Z" style="fill-rule:nonzero;"/></g><g transform="matrix(1,0,0,1,496.2322,83.0471)"><path d="M0,-40.237c-2.776,-2.566 -6.461,-3.842 -11.079,-3.842c-4.21,0 -8.105,1.105 -11.671,3.329c-3.579,2.224 -6.316,5.46 -8.224,9.737c-0.408,-4.329 -1.947,-7.592 -4.631,-9.777c-2.684,-2.197 -6.158,-3.289 -10.421,-3.289c-3.803,0 -7.356,0.921 -10.645,2.763c-3.29,1.855 -5.934,4.592 -7.961,8.224l1.829,-10.04l-3.894,0l-8.395,46.974l3.895,0l4.5,-25.171l0,0.171c1.092,-6.342 3.408,-11.184 6.96,-14.526c3.54,-3.356 7.737,-5.027 12.579,-5.027c3.934,0 6.974,1.066 9.132,3.211c2.158,2.131 3.25,5.21 3.25,9.25c0,1.789 -0.145,3.408 -0.435,4.842l-4.842,27.25l3.803,0l4.5,-25.079l0,0.079c1.092,-6.342 3.408,-11.184 6.96,-14.526c3.553,-3.356 7.737,-5.027 12.593,-5.027c3.921,0 6.96,1.066 9.118,3.211c2.171,2.131 3.25,5.21 3.25,9.25c0,1.789 -0.145,3.408 -0.434,4.842l-4.842,27.25l3.802,0l4.935,-27.513c0.342,-1.895 0.513,-3.632 0.513,-5.184c0,-5.014 -1.382,-8.803 -4.145,-11.382" style="fill-rule:nonzero;"/></g><g transform="matrix(1,0,0,1,189.3688,59.3158)"><path d="M0,6.072l-16.365,10.487c-2.522,1.605 -5.597,-0.092 -5.345,-2.974l1.834,-20.96c0.251,-2.869 3.624,-4.579 5.864,-2.961l14.531,10.474c1.968,1.421 1.697,4.513 -0.519,5.934m4.653,-27.167l-1.21,6.829c-1.04,-2.25 -2.711,-4.066 -5.013,-5.448c-2.316,-1.381 -5.171,-2.079 -8.566,-2.079c-3.987,0 -7.763,1.013 -11.342,3.027c-3.566,2.026 -6.632,4.908 -9.171,8.644c-2.527,3.764 -4.237,8.106 -5.092,13.066c-0.356,2.079 -0.527,4.04 -0.527,5.882c0,3.868 0.724,7.223 2.158,10.079c1.448,2.855 3.474,5.065 6.105,6.618c2.619,1.566 5.632,2.342 9.04,2.342c3.408,0 6.513,-0.697 9.342,-2.079c2.829,-1.381 5.158,-3.197 7.013,-5.447l-1.302,6.829l14.789,0l8.566,-48.263l-14.79,0Z" style="fill-rule:nonzero;"/></g><g transform="matrix(1,0,0,1,206.8046,14.7439)"><path d="M0,17.635c-0.813,-0.103 -1.582,-0.533 -2.094,-1.253c-3.693,-5.185 -9.436,-8.62 -15.758,-9.424c-6.321,-0.803 -12.741,1.085 -17.614,5.18c-1.286,1.081 -3.205,0.915 -4.285,-0.37c-1.082,-1.287 -0.915,-3.206 0.371,-4.286c6.168,-5.185 14.295,-7.575 22.296,-6.558c8.001,1.018 15.27,5.365 19.945,11.93c0.975,1.367 0.655,3.267 -0.713,4.242c-0.649,0.462 -1.416,0.632 -2.148,0.539" style="fill-rule:nonzero;"/></g><g transform="matrix(1,0,0,1,219.0681,-1.2614)"><path d="M0,24.318c-0.813,-0.103 -1.582,-0.533 -2.095,-1.253c-6.103,-8.573 -15.599,-14.252 -26.052,-15.581c-10.453,-1.329 -21.067,1.792 -29.122,8.564c-1.287,1.081 -3.205,0.915 -4.286,-0.37c-1.081,-1.286 -0.915,-3.204 0.371,-4.285c9.35,-7.863 21.672,-11.486 33.805,-9.943c12.132,1.542 23.155,8.134 30.24,18.087c0.974,1.369 0.655,3.267 -0.713,4.242c-0.649,0.461 -1.416,0.632 -2.148,0.539" style="fill-rule:nonzero;"/></g><g transform="matrix(1,0,0,1,174.3416,91.2621)"><path d="M0,16.13c-8.002,-1.018 -15.271,-5.365 -19.945,-11.931c-0.974,-1.369 -0.655,-3.267 0.713,-4.242c1.37,-0.975 3.267,-0.655 4.243,0.714c3.691,5.186 9.435,8.621 15.756,9.425c6.322,0.804 12.742,-1.085 17.614,-5.181c1.286,-1.083 3.204,-0.917 4.286,0.37c1.081,1.286 0.915,3.204 -0.37,4.286c-6.169,5.186 -14.295,7.577 -22.297,6.559" style="fill-rule:nonzero;"/></g><g transform="matrix(1,0,0,1,172.3731,101.1099)"><path d="M0,21.762c-12.132,-1.543 -23.154,-8.136 -30.24,-18.089c-0.975,-1.368 -0.655,-3.267 0.713,-4.242c1.37,-0.974 3.268,-0.654 4.243,0.715c6.104,8.572 15.599,14.252 26.051,15.582c10.453,1.329 21.067,-1.794 29.123,-8.566c1.287,-1.082 3.203,-0.917 4.286,0.37c1.08,1.286 0.915,3.204 -0.371,4.286c-9.352,7.862 -21.673,11.487 -33.805,9.944" style="fill-rule:nonzero;"/></g></g></g></g></g></svg>