<?xml version="1.0" encoding="utf-8"?>
<!-- Generator: Adobe Illustrator 27.1.1, SVG Export Plug-In . SVG Version: 6.00 Build 0)  -->
<svg version="1.1" id="Capa_1" xmlns="http://www.w3.org/2000/svg" xmlns:xlink="http://www.w3.org/1999/xlink" x="0px" y="0px"
	 viewBox="0 0 300 95.74" style="enable-background:new 0 0 300 95.74;" xml:space="preserve">
<style type="text/css">
	.st0{fill:currentColor;}
</style>
<g>
	<path class="st0" d="M44.53,66.97c4.06,1.06,8.84,0.53,11.91-2.56c3.24-2.96,3.99-7.56,4.1-11.74c-2.95,2.65-6.99,3.71-10.89,3.56
		c-6.68,0.27-12.94-2.43-19.01-4.84c-3.89-1.57-7.81-3.31-12.04-3.67c1.17-0.46,2.41-1.06,2.86-2.34c1.09-2.74,2.14-5.51,3.37-8.2
		c3.09-6.83,6.05-13.74,8.51-20.83c0.99-2.84,1.93-5.72,2.26-8.72c0.1-1.43,0.22-2.96-0.42-4.29c-0.63-1.4-2.04-2.23-3.43-2.74
		c-3.23-1.02-6.66-0.52-9.96-0.17c-4.01,0.74-8.27,1.72-11.32,4.62c-1.63,1.53-1.87,4.12-0.9,6.07c1.28,2.66,3.37,4.95,5.94,6.41
		c1.51-3.27,3.94-6.04,6.42-8.61c-1.91,1.02-3.75,2.16-5.41,3.56c1.99-3.61,5.79-6.08,9.92-6.3c-0.68,0.32-1.37,0.74-1.63,1.49
		c-0.68,1.93-0.73,3.96-1.24,5.93c-2.6,10-4.66,20.2-8.38,29.86c-0.69,2.08-2.85,3.45-4.99,3.49c-2.82,0.08-5.87,0.13-8.31,1.75
		c-2.83,1.68-2.11,5.87-0.15,7.94c1.41-1.97,3.96-2.48,6.21-2.76c2.44-0.19,4.91-0.16,7.34,0.12c7.8,0.65,14.66,4.83,21.17,8.83
		C39.08,64.34,41.55,66.24,44.53,66.97z"/>
	<path class="st0" d="M155.06,18.77c1.09-2.38,1.49-5.38-0.09-7.64c-2.16-3.65-6.14-5.54-9.92-7.06c-0.11,1.31-0.43,2.58-0.81,3.84
		c-1.82,5.92-4.49,11.52-7.29,17.03c-3.78,7.32-8.01,14.4-12.42,21.34c-3.06,4.53-6.25,8.98-9.22,13.59
		c-4.07,6.27-7.64,12.96-10.11,20.06c-2.97-10.21-6.04-20.95-5.72-31.67c0.2-7.94,1.45-14.06,4.38-23.4
		c0.52-1.64,1.28-2.94,1.5-4.86c0.19-1.71-0.4-3.35-1.37-4.7c-2.31-3.22-6-4.89-9.5-6.44c-2.04,22.73-4.82,28.8-11.59,42.74
		c-4.65,9.57-9.45,18.56-15.71,24.95c-4.6,4.77-9.94,8.56-16.49,9.6c-6.29,1-13.51,1.16-18.71-2.8c-6.27-4.78-9.4-13.32-9.4-13.32
		c-0.23,3.57,0.5,7.92,1.62,11.3c1.29,3.63,3.42,7.15,6.83,9.12c6.17,3.48,13.51,4.3,20.47,3.72c5.97-0.53,11.82-2.52,16.8-5.88
		c5.3-3.54,9.58-8.41,13.05-13.71c4.23-6.5,6.8-12.09,9.53-19.32c1.03,4.92,2.61,8.27,4.28,13.01c2.02,5.51,4.9,10.69,7.83,15.79
		c0.76,1.15,1.09,2.04,2.08,3.35l3.49-6.71c4.74-8.84,11.27-16.58,18.31-23.69c-2.1,6.11-3.84,12.34-5.29,18.63
		c-0.57,2.93-1.58,8.42-1.23,11.42c0.73,3.89,4.19,6.85,8.08,7.29c0.14-2.07,0.48-4.13,0.96-6.15c1.51-6.47,3.93-15.28,6.08-21.56
		c3.31-9.37,6.9-18.63,10.68-27.82C148.97,32.05,151.79,25.3,155.06,18.77z"/>
	<path class="st0" d="M30.56,45.63c1.1,2.65,3.48,4.68,6.24,5.44c3.5,0.95,7.44,0.48,10.5-1.51c2.97-1.9,5-4.94,6.28-8.27
		c1.01-2.6,1.89-5.04,1.98-7.77c2.12-0.18,4.12-1.09,5.73-2.47c1.75,3.03,3.46,6.33,3.34,9.93c-0.07,1.88-0.58,4.01-2.22,5.16
		c-1.13,0.84-2.83,0.82-3.83-0.28c-1.26-1.38-1.44-2.88-1.88-4.91c-0.66,1.64-0.74,2.53-0.78,3.03c-0.2,2.33,0.66,4.27,2.43,5.71
		c2.48,2.02,5.16,2.2,7.82,1.61c3.15-0.63,5.91-2.59,7.91-5.06c2.61-3.23,4.16-7.27,4.63-11.4c0.17-1.5-0.76-3.13-2.33-3.32
		c-0.69,4.38-0.95,9.16-4.08,12.71c0.63-3.28,0.45-6.74-0.8-9.86c-1.11-2.99-3.22-5.45-4.67-8.27c-1.4-2.76-2.74-6.37-1.12-9.05
		c-3.44-0.66-9.05-0.19-8.35,5.75c0.59,2.33,1.05,3.61,2.28,5.63c-1.02,1.2-2.43,2.02-4,2.2c-0.18-1.39-0.4-3.17-1.85-3.82
		c-4.41-1.54-9.56,2.62-9.12,7.21c0.79-1.07,1.19-1.45,1.74-1.93c0.87-0.77,1.89-1,2.55-0.73c1.29,0.54,1.51,1.92,1.58,2.95
		c0.24,3.69-0.58,7.39-2.5,10.47c-1.21,1.78-2.73,3.56-4.88,4.18c-1.76,0.64-4.22,0.54-5.27-1.25c-1.22-2.47-0.73-5.34-0.31-7.95
		c1.27-5.6,4.08-11.16,8.84-14.56c2.2-1.63,5.13-1.99,7.71-1.15c-0.28-1.76-1.77-2.99-3.22-3.84c-3.31-1.96-7.63-1.67-10.89,0.25
		c-4.69,2.74-7.98,7.48-9.54,12.62C29.21,37.12,28.77,41.68,30.56,45.63z"/>
	<path class="st0" d="M296.5,63.51c-1.02,6.51-1.42,13.61-6.06,18.89c0.93-4.87,0.67-10.03-1.19-14.66
		c-1.65-4.45-4.79-8.11-6.94-12.3c-2.08-4.1-4.07-9.47-1.67-13.45c-5.12-0.99-13.45-0.29-12.41,8.54c0.88,3.47,1.56,5.37,3.39,8.37
		c-1.51,1.78-3.61,3-5.95,3.28c-0.27-2.07-0.59-4.72-2.75-5.68c-6.56-2.29-14.21,3.9-13.56,10.72c1.18-1.6,1.78-2.16,2.58-2.88
		c1.29-1.15,2.81-1.49,3.78-1.08c1.92,0.81,2.24,2.85,2.34,4.39c0.35,5.48-0.86,10.98-3.71,15.57c-1.8,2.65-4.06,5.29-7.25,6.21
		c-2.62,0.95-6.28,0.81-7.84-1.86c-1.81-3.67-1.08-7.94-0.46-11.82c1.88-8.33,6.06-16.59,13.15-21.64c3.27-2.42,7.62-2.95,11.46-1.7
		c-0.41-2.61-2.63-4.45-4.79-5.71c-4.93-2.91-11.33-2.48-16.19,0.37c-6.97,4.07-11.86,11.12-14.18,18.76
		c-1.69,5.37-2.39,11.36-0.61,16.76c-0.89,1.81-2.01,3.5-3.44,4.93c-1.69,1.64-4.2,2.28-6.49,1.94c-1.16-0.54-1.23-2.05-1.21-3.17
		c0.14-3.15,0.99-6.24,2.06-9.19c3.27-11.13,8.4-21.59,12.35-32.48c2.06-5.87,4.63-11.81,4.47-18.15c-0.01-3.13-1.9-6-4.52-7.6
		c-3.32-2.08-7.35-2.4-11.17-2.56c-2.35,0.1-4.79,0.16-6.97,1.15c3.18,1.25,4.66,6.97,4.69,9.62c0.03,2.66-1.16,6.73-1.84,9.6
		c-3.16,12.83-5.95,25.76-9.6,38.46c-1.03,3.6-2.13,7.33-4.52,10.32c-0.99,1.27-2.6,2-4.21,1.93c-1.1,0-2.64,0.01-3.1-1.23
		c-0.55-1.85-0.03-3.78,0.4-5.6c1.07-4.52,3.13-8.71,5.06-12.9c1.53-3.39,3.41-6.89,3.11-10.73c-0.09-2.61-1.57-5.13-3.89-6.36
		c-3.44-1.97-7.52-2.55-11.42-2.13c-3.81,0.3-6.99,0.35-9.15-3.11c1.26,0.69,2.45,1.67,3.92,1.85c0.36-2.22,0.53-4.49,0.18-6.71
		c-0.32-3.11-1.36-5.91-3.63-8.15c-1.84-1.72-4.7-1.7-6.71-0.48c-2.65,1.61-3.38,3.06-4.2,5.08c-1.11,2.74-1.28,6.01-0.43,8.83
		c1.04,3.43,2.83,6.19,4.21,8.11c0.75,1.05-0.1,2.59-0.28,3.84c-1.21,5.08-2.78,10.07-4.41,15.04c-0.3,0.91-0.8,1.9-1.12,2.79
		c-0.97,2.49-2.16,4.69-3.57,6.98c-1.16,1.8-2.53,3.22-4.7,4.34c-1.18,0.61-3.04,0.62-3.97-0.43c-2.02-2.25,0.3-7.66,0.3-7.66
		c2.12-6.62,5.53-12.74,7.85-19.29c0.95-2.7,1.59-5.65,0.93-8.49c-0.71-2.91-3.17-5.08-5.87-6.16c-3.1-1.2-7.26-1.79-9.81-1.15
		c0,0,1.09,2.54,1.27,3.43c0.7,3.49-0.43,7.1-1.48,10.48c-1.56,5.4-3.5,10.67-5.06,16.07c-1.32,4.48-2.28,9.4-0.83,13.96
		c0.92,3.06,5.2,5.68,8.31,5.95c3.97,0.43,6.95-0.62,10.34-2.9c3.25-2.37,5.64-5.37,7.41-9.37c1.03-2.32,1.17-2.9,1.86-4.35
		c1.37-2.89,2.37-6.01,3.61-8.95c1.28-3.16,2.59-6.31,3.77-9.5c0.09-0.23,0.22-0.7,0.43-0.84c0.27-0.18,0.84-0.2,1.4-0.11
		c2.58,0.41,5.26,0.73,7.61,1.93c0.5,0.29,1.29,0.73,1.08,1.44c-2.35,7.75-6.45,15.27-6,23.6c0.2,3.2,1.53,6.96,4.79,8.16
		c2.94,1.05,6.19,1.09,9.23,0.49c4.14-0.9,7.62-3.71,9.93-7.19c0.12,2.61,0.71,5.42,2.71,7.26c2.74,2.59,6.92,2.92,10.44,2.08
		c4.79-1.42,8.86-4.71,11.62-8.84c1.87,2.95,4.86,5.17,8.23,6.09c5.21,1.41,11.06,0.71,15.61-2.25c4.41-2.83,7.43-7.35,9.34-12.3
		c1.49-3.87,2.8-7.5,2.94-11.55c3.15-0.27,6.12-1.62,8.52-3.67c2.61,4.5,5.14,9.41,4.96,14.76c-0.11,2.8-0.86,5.97-3.3,7.66
		c-1.68,1.25-4.21,1.21-5.7-0.42c-1.88-2.06-2.14-4.28-2.8-7.3c-0.98,2.43-1.1,3.76-1.16,4.5c-0.29,3.46,0.98,6.34,3.62,8.49
		c3.69,3.01,7.67,3.27,11.63,2.4c4.69-0.94,8.79-3.85,11.76-7.52c3.89-4.81,6.18-10.81,6.88-16.95
		C300.23,66.21,298.84,63.8,296.5,63.51z M176.74,43.71c-1.36-1.76-2.08-4.3-1.04-6.38C177.06,39.17,176.72,41.59,176.74,43.71z"/>
	<path class="st0" d="M150.65,34.15c-0.62,2.5,0.32,5.29,2.28,6.95c1.78,1.54,4.36,2.12,6.62,1.41c2.4-0.67,4.32-2.74,4.87-5.17
		c0.55-2.25-0.13-4.74-1.72-6.43c-1.73-1.89-4.54-2.7-7-2C153.22,29.56,151.2,31.65,150.65,34.15z"/>
</g>
</svg>
