<?xml version="1.0" encoding="UTF-8" standalone="no"?>
<!DOCTYPE svg PUBLIC "-//W3C//DTD SVG 1.1//EN" "http://www.w3.org/Graphics/SVG/1.1/DTD/svg11.dtd">
<svg width="100%" height="100%" viewBox="0 0 547 483" version="1.1" xmlns="http://www.w3.org/2000/svg" xmlns:xlink="http://www.w3.org/1999/xlink" xml:space="preserve" xmlns:serif="http://www.serif.com/" style="fill-rule:evenodd;clip-rule:evenodd;stroke-linejoin:round;stroke-miterlimit:2;">
    <g transform="matrix(1,0,0,1,-1233.378213,-525.099396)">
        <g transform="matrix(4.166667,0,0,4.166667,0,0)">
            <g transform="matrix(1,0,0,1,70.664571,-21.742945)">
                <g transform="matrix(1,0,0,1,330.0742,147.7668)">
                    <path d="M0,115.651L-4.46,101.381L-17.964,101.381L-17.964,98.183L-17.971,97.435L-17.971,87.062L-38.449,87.063L-39.117,86.992L-39.207,86.314L-39.207,81.34L-39.196,81.34L-39.196,74.981L-68.831,74.981L-68.831,62.665L-83.454,54.943L-84.979,54.116L-84.979,34.31L-104.728,34.31L-102.494,0L-81.4,0L-81.402,0.748L-79.796,12.257L-86.321,9.431L-86.994,5.721L-96.864,5.721L-98.2,28.589L-79.263,28.589L-79.259,30.775L-79.259,50.685L-63.11,59.229L-63.11,69.26L-33.477,69.26L-33.477,81.34L-12.251,81.34L-12.252,95.659L0.006,95.659L1.233,100.447L4.198,109.93L22.645,109.93L26.503,115.651L0,115.651Z" style="fill:rgb(238,36,73);fill-rule:nonzero;"/>
                </g>
                <g transform="matrix(1,0,0,1,273.1798,188.4376)">
                    <path d="M0,26.937L0,5.721L-4.46,5.721L-4.46,0L23.418,0L23.418,7.26L17.698,10.154L17.698,5.721L5.72,5.721L5.72,14.318L14.78,14.318L14.78,20.039L5.72,20.039L5.72,26.937L0,26.937Z" style="fill:rgb(64,63,65);fill-rule:nonzero;"/>
                </g>
                <g transform="matrix(1,0,0,1,261.2441,191.3311)">
                    <path d="M0,4.367L0,2.827L-8.776,2.827L-8.776,-2.893L5.72,-2.893L5.72,7.26L0,4.367Z" style="fill:rgb(64,63,65);fill-rule:nonzero;"/>
                </g>
                <g transform="matrix(1,0,0,1,304.6775,147.7674)">
                    <path d="M0,34.309L-0.882,33.114L-15.775,11.89L-15.775,28.588L-12.509,28.588L-10.885,34.309L-24.761,34.309L-23.796,28.588L-21.494,28.588L-21.494,5.72L-25.472,5.72L-24.509,0L-17.167,0L-1.403,22.42L-1.403,5.72L-4.142,5.72L-7.034,0L7.447,0L7.447,5.72L4.318,5.72L4.318,34.309L0,34.309Z" style="fill:rgb(64,63,65);fill-rule:nonzero;"/>
                </g>
                <g transform="matrix(1,0,0,1,332.9675,229.1075)">
                    <path d="M0,20.04L-2.974,9.987L-2.972,5.722L-13.491,5.722L-13.491,0L2.139,0L2.139,20.04L0,20.04Z" style="fill:rgb(64,63,65);fill-rule:nonzero;"/>
                </g>
                <g transform="matrix(1,0,0,1,305.3493,188.4373)">
                    <path d="M0,34.311L1.625,28.589L3.904,28.589L3.904,5.721L-1.361,5.721L-1.361,11.352L-7.081,8.461L-7.081,0L20.562,0L20.562,7.687L14.842,11.541L14.842,5.721L9.624,5.721L9.624,28.589L11.856,28.589L13.481,34.311L0,34.311Z" style="fill:rgb(64,63,65);fill-rule:nonzero;"/>
                </g>
                <g transform="matrix(1,0,0,1,307.407,250.7988)">
                    <path d="M0,12.619L1.625,6.898L4.702,6.898L4.702,0L10.422,0L10.422,6.898L13.547,6.898L15.172,12.619L0,12.619Z" style="fill:rgb(64,63,65);fill-rule:nonzero;"/>
                </g>
                <g transform="matrix(1,0,0,1,278.1231,229.1068)">
                    <path d="M0,34.311L0,5.722L-3.078,5.722L-4.702,0L10.469,0L8.845,5.722L5.72,5.722L5.72,28.59L17.173,28.59L17.173,7.374L22.894,7.374L22.894,34.311L0,34.311Z" style="fill:rgb(64,63,65);fill-rule:nonzero;"/>
                </g>
                <g transform="matrix(1,0,0,1,271.0904,153.6069)">
                    <path d="M0,22.867L-2.005,-0.001L-10.728,-0.001L-12.734,22.867L0,22.867ZM-18.522,28.589L-18.522,25.727L-16.384,-2.918L-16.385,-5.722L3.652,-5.722L3.652,-2.861L5.787,25.671L5.789,28.589L-18.522,28.589Z" style="fill:rgb(64,63,65);fill-rule:nonzero;"/>
                </g>
                <g transform="matrix(1,0,0,1,245.1718,211.2483)">
                    <path d="M0,11.5L0,0L5.72,2.893L5.72,5.778L14.418,5.778L14.418,11.5L0,11.5Z" style="fill:rgb(64,63,65);fill-rule:nonzero;"/>
                </g>
                <g transform="matrix(0.892358,-0.451327,-0.451327,-0.892358,291.589896,215.470242)">
                    <path d="M-0.097,1.387L6.313,1.387L4.511,-2.175L-0.56,0.39L-0.097,1.387Z" style="fill:rgb(64,63,65);fill-rule:nonzero;"/>
                </g>
                <g transform="matrix(1,0,0,1,251.213,229.3515)">
                    <path d="M0,34.311L1.625,28.589L3.904,28.589L3.904,5.721L-1.361,5.721L-1.361,11.352L-7.081,8.461L-7.081,0L20.562,0L20.562,7.687L14.842,11.541L14.842,5.721L9.624,5.721L9.624,28.589L11.856,28.589L13.481,34.311L0,34.311Z" style="fill:rgb(64,63,65);fill-rule:nonzero;"/>
                </g>
            </g>
        </g>
    </g>
</svg>
