<?xml version="1.0" encoding="UTF-8" standalone="no"?><!DOCTYPE svg PUBLIC "-//W3C//DTD SVG 1.1//EN" "http://www.w3.org/Graphics/SVG/1.1/DTD/svg11.dtd"><svg width="100%" height="100%" viewBox="0 0 142 30" version="1.1" xmlns="http://www.w3.org/2000/svg" xmlns:xlink="http://www.w3.org/1999/xlink" xml:space="preserve" xmlns:serif="http://www.serif.com/" style="fill-rule:evenodd;clip-rule:evenodd;stroke-linejoin:round;stroke-miterlimit:2;"><path d="M32.61,6.116l2.012,6.192l6.51,0c0.689,0 0.975,0.881 0.418,1.286l-5.267,3.827l2.012,6.191c0.213,0.655 -0.537,1.2 -1.094,0.795l-5.267,-3.827l-5.267,3.827c-0.557,0.405 -1.307,-0.14 -1.094,-0.795l2.012,-6.191l-5.267,-3.827c-0.557,-0.405 -0.271,-1.286 0.418,-1.286l6.51,0l2.012,-6.192c0.213,-0.655 1.139,-0.655 1.352,0" style="fill-rule:nonzero;"/><path d="M17.784,21.223c-0.679,1.738 -1.754,3.077 -3.221,4.015c-1.468,0.939 -3.199,1.409 -5.197,1.409c-1.361,0 -2.616,-0.246 -3.766,-0.739c-1.152,-0.493 -2.138,-1.168 -2.96,-2.025c-0.82,-0.857 -1.468,-1.862 -1.935,-3.013c-0.47,-1.149 -0.705,-2.381 -0.705,-3.697c0,-1.314 0.235,-2.553 0.705,-3.716c0.467,-1.162 1.115,-2.171 1.935,-3.028c0.822,-0.857 1.808,-1.537 2.96,-2.043c1.15,-0.504 2.405,-0.757 3.766,-0.757c1.998,0 3.735,0.488 5.214,1.462c1.479,0.974 2.548,2.342 3.204,4.103c-0.304,0.07 -0.662,0.146 -1.075,0.229c-0.41,0.082 -0.825,0.163 -1.249,0.247c-0.422,0.081 -0.84,0.163 -1.25,0.246c-0.41,0.082 -0.78,0.158 -1.109,0.228c-0.33,-0.609 -0.828,-1.138 -1.496,-1.584c-0.671,-0.447 -1.416,-0.669 -2.239,-0.669c-0.633,0 -1.232,0.141 -1.794,0.421c-0.564,0.283 -1.057,0.665 -1.479,1.145c-0.424,0.482 -0.759,1.045 -1.006,1.691c-0.246,0.647 -0.369,1.333 -0.369,2.061c0,0.704 0.123,1.373 0.369,2.006c0.247,0.635 0.582,1.193 1.006,1.674c0.422,0.482 0.915,0.857 1.479,1.126c0.562,0.271 1.161,0.406 1.794,0.406c0.823,0 1.568,-0.212 2.239,-0.635c0.668,-0.421 1.166,-0.938 1.496,-1.549l4.683,0.986Z" style="fill-rule:nonzero;"/><rect x="45.802" y="0.021" width="4.649" height="26.203"/><path d="M57.574,26.224l-4.649,0l0,-18.138l4.649,0l0,18.138Zm-2.359,-19.617c-0.656,0 -1.221,-0.233 -1.691,-0.703c-0.47,-0.47 -0.705,-1.033 -0.705,-1.691c0,-0.681 0.235,-1.263 0.705,-1.744c0.47,-0.48 1.035,-0.721 1.691,-0.721c0.679,0 1.261,0.241 1.743,0.721c0.481,0.481 0.722,1.063 0.722,1.744c0,0.658 -0.241,1.221 -0.722,1.691c-0.482,0.47 -1.064,0.703 -1.743,0.703" style="fill-rule:nonzero;"/><path d="M69.479,8.087l0,4.121l-3.276,0l0,14.017l-4.649,0l0,-14.017l-2.184,0l0,-4.121l2.184,0c0.023,-1.174 0.212,-2.283 0.565,-3.327c0.352,-1.045 0.874,-1.938 1.568,-2.677c0.69,-0.74 1.536,-1.297 2.533,-1.673c1.001,-0.375 2.144,-0.493 3.437,-0.352l0,4.366c-1.13,-0.093 -1.986,0.176 -2.574,0.811c-0.585,0.634 -0.88,1.585 -0.88,2.852l3.276,0Z" style="fill-rule:nonzero;"/><path d="M76.309,26.224l-4.649,0l0,-18.138l4.649,0l0,18.138Zm-2.359,-19.617c-0.656,0 -1.22,-0.233 -1.69,-0.703c-0.471,-0.47 -0.706,-1.033 -0.706,-1.691c0,-0.681 0.235,-1.263 0.706,-1.744c0.47,-0.48 1.034,-0.721 1.69,-0.721c0.68,0 1.262,0.241 1.743,0.721c0.482,0.481 0.722,1.063 0.722,1.744c0,0.658 -0.24,1.221 -0.722,1.691c-0.481,0.47 -1.063,0.703 -1.743,0.703" style="fill-rule:nonzero;"/><path d="M95.933,21.223c-0.679,1.738 -1.754,3.077 -3.221,4.015c-1.468,0.939 -3.199,1.409 -5.197,1.409c-1.361,0 -2.616,-0.246 -3.766,-0.739c-1.152,-0.493 -2.138,-1.168 -2.96,-2.025c-0.82,-0.857 -1.468,-1.862 -1.935,-3.013c-0.47,-1.149 -0.705,-2.381 -0.705,-3.697c0,-1.314 0.235,-2.553 0.705,-3.716c0.467,-1.162 1.115,-2.171 1.935,-3.028c0.822,-0.857 1.808,-1.537 2.96,-2.043c1.15,-0.504 2.405,-0.757 3.766,-0.757c1.998,0 3.735,0.488 5.214,1.462c1.479,0.974 2.548,2.342 3.204,4.103c-0.304,0.07 -0.662,0.146 -1.075,0.229c-0.41,0.082 -0.825,0.163 -1.249,0.247c-0.422,0.081 -0.84,0.163 -1.25,0.246c-0.41,0.082 -0.78,0.158 -1.109,0.228c-0.33,-0.609 -0.828,-1.138 -1.496,-1.584c-0.671,-0.447 -1.416,-0.669 -2.239,-0.669c-0.633,0 -1.232,0.141 -1.794,0.421c-0.564,0.283 -1.057,0.665 -1.479,1.145c-0.424,0.482 -0.759,1.045 -1.006,1.691c-0.246,0.647 -0.369,1.333 -0.369,2.061c0,0.704 0.123,1.373 0.369,2.006c0.247,0.635 0.582,1.193 1.006,1.674c0.422,0.482 0.915,0.857 1.479,1.126c0.562,0.271 1.161,0.406 1.794,0.406c0.823,0 1.568,-0.212 2.239,-0.635c0.668,-0.421 1.166,-0.938 1.496,-1.549l4.683,0.986Z" style="fill-rule:nonzero;"/><path d="M109.734,17.49c-0.496,0.33 -1.115,0.576 -1.857,0.739c-0.745,0.165 -1.599,0.306 -2.565,0.423c-1.155,0.118 -2.064,0.324 -2.723,0.616c-0.662,0.294 -0.992,0.781 -0.992,1.462c0,0.517 0.278,0.933 0.831,1.251c0.554,0.317 1.304,0.474 2.247,0.474c0.708,0 1.368,-0.057 1.981,-0.176c0.613,-0.116 1.149,-0.309 1.608,-0.58c0.461,-0.27 0.819,-0.611 1.08,-1.022c0.258,-0.41 0.39,-0.908 0.39,-1.496l0,-1.691Zm0.596,8.734c-0.186,-0.422 -0.338,-0.986 -0.456,-1.691c-0.61,0.635 -1.372,1.134 -2.29,1.498c-0.914,0.364 -2.006,0.546 -3.275,0.546c-0.963,0 -1.883,-0.123 -2.763,-0.37c-0.883,-0.246 -1.663,-0.61 -2.345,-1.092c-0.679,-0.481 -1.226,-1.092 -1.636,-1.831c-0.41,-0.74 -0.616,-1.602 -0.616,-2.588c0,-1.011 0.2,-1.85 0.599,-2.52c0.398,-0.669 0.937,-1.208 1.619,-1.619c0.682,-0.411 1.467,-0.716 2.359,-0.916c0.894,-0.199 1.842,-0.346 2.854,-0.44c0.751,-0.07 1.445,-0.153 2.078,-0.246c0.634,-0.095 1.178,-0.218 1.637,-0.37c0.458,-0.153 0.816,-0.347 1.074,-0.582c0.258,-0.233 0.387,-0.54 0.387,-0.915c0,-0.469 -0.286,-0.874 -0.862,-1.215c-0.576,-0.34 -1.39,-0.511 -2.448,-0.511c-0.398,0 -0.811,0.048 -1.232,0.141c-0.422,0.094 -0.817,0.229 -1.181,0.405c-0.364,0.177 -0.679,0.4 -0.949,0.67c-0.272,0.269 -0.464,0.593 -0.582,0.968c-0.235,-0.047 -0.547,-0.117 -0.934,-0.212c-0.387,-0.093 -0.791,-0.193 -1.215,-0.299c-0.422,-0.105 -0.834,-0.211 -1.233,-0.317c-0.398,-0.106 -0.739,-0.193 -1.02,-0.264c0.235,-0.705 0.605,-1.35 1.109,-1.937c0.505,-0.586 1.109,-1.098 1.814,-1.532c0.703,-0.434 1.502,-0.768 2.394,-1.003c0.894,-0.235 1.868,-0.353 2.923,-0.353c1.221,0 2.267,0.118 3.135,0.353c0.869,0.235 1.597,0.546 2.184,0.933c0.585,0.387 1.055,0.815 1.408,1.285c0.352,0.47 0.616,0.933 0.794,1.392c0.174,0.457 0.286,0.885 0.332,1.285c0.049,0.398 0.072,0.717 0.072,0.95l0,9.44c0,0.445 0.057,0.963 0.174,1.549c0.118,0.587 0.235,1.056 0.353,1.408l-4.262,0Z" style="fill-rule:nonzero;"/><rect x="116.645" y="0.021" width="4.649" height="26.203"/><path d="M131.972,22.385c0.61,0 1.187,-0.123 1.725,-0.37c0.542,-0.246 1.018,-0.599 1.428,-1.056c0.41,-0.458 0.733,-1.004 0.968,-1.638c0.235,-0.633 0.353,-1.338 0.353,-2.112c0,-0.775 -0.118,-1.492 -0.353,-2.15c-0.235,-0.656 -0.558,-1.219 -0.968,-1.689c-0.41,-0.47 -0.886,-0.834 -1.428,-1.092c-0.538,-0.258 -1.115,-0.387 -1.725,-0.387c-0.61,0 -1.192,0.129 -1.743,0.387c-0.55,0.258 -1.026,0.622 -1.427,1.092c-0.398,0.47 -0.716,1.033 -0.949,1.689c-0.235,0.658 -0.352,1.375 -0.352,2.15c0,0.774 0.117,1.479 0.352,2.112c0.233,0.634 0.551,1.18 0.949,1.638c0.401,0.457 0.877,0.81 1.427,1.056c0.551,0.247 1.133,0.37 1.743,0.37m-0.017,-14.756c1.267,-0 2.447,0.241 3.551,0.722c1.1,0.482 2.066,1.151 2.9,2.008c0.831,0.857 1.488,1.866 1.966,3.028c0.482,1.162 0.723,2.425 0.723,3.786c0,1.361 -0.241,2.618 -0.723,3.769c-0.478,1.151 -1.135,2.148 -1.966,2.994c-0.834,0.844 -1.8,1.507 -2.9,1.989c-1.104,0.481 -2.284,0.722 -3.551,0.722c-1.264,0 -2.448,-0.241 -3.551,-0.722c-1.101,-0.482 -2.061,-1.145 -2.881,-1.989c-0.819,-0.846 -1.47,-1.843 -1.951,-2.994c-0.482,-1.151 -0.72,-2.408 -0.72,-3.769c0,-1.361 0.238,-2.624 0.72,-3.786c0.481,-1.162 1.132,-2.171 1.951,-3.028c0.82,-0.857 1.78,-1.526 2.881,-2.008c1.103,-0.481 2.287,-0.722 3.551,-0.722" style="fill-rule:nonzero;"/><rect x="19.821" y="28.444" width="24.226" height="1.313"/></svg>