<?xml version="1.0" encoding="UTF-8" standalone="no"?><!DOCTYPE svg PUBLIC "-//W3C//DTD SVG 1.1//EN" "http://www.w3.org/Graphics/SVG/1.1/DTD/svg11.dtd"><svg width="100%" height="100%" viewBox="0 0 547 483" version="1.1" xmlns="http://www.w3.org/2000/svg" xmlns:xlink="http://www.w3.org/1999/xlink" xml:space="preserve" xmlns:serif="http://www.serif.com/" style="fill-rule:evenodd;clip-rule:evenodd;stroke-linejoin:round;stroke-miterlimit:2;"><path d="M436.367,481.879l-18.583,-59.458l-56.267,0l0,-13.325l-0.029,-3.117l0,-43.221l-85.325,0.004l-2.783,-0.296l-0.375,-2.825l0,-20.725l0.046,0l0,-26.496l-123.479,0l0,-51.317l-60.929,-32.175l-6.354,-3.446l0,-82.525l-82.288,0l9.308,-142.958l87.892,0l-0.008,3.117l6.692,47.954l-27.188,-11.775l-2.804,-15.458l-41.125,0l-5.567,95.283l78.904,0l0.017,9.108l0,82.958l67.288,35.6l0,41.796l123.471,0l0,50.333l88.442,0l-0.004,59.663l51.075,0l5.113,19.95l12.354,39.513l76.863,0l16.075,23.838l-110.429,0Z"/><path d="M199.307,281.699l0,-88.4l-18.583,0l0,-23.838l116.158,0l0,30.25l-23.833,12.058l0,-18.471l-49.908,0l0,35.821l37.75,0l0,23.838l-37.75,0l0,28.742l-23.833,0Z"/><path d="M149.575,199.714l0,-6.417l-36.567,0l0,-23.833l60.4,0l0,42.304l-23.833,-12.054Z"/><path d="M330.547,142.957l-3.675,-4.979l-62.054,-88.433l0,69.575l13.608,0l6.767,23.838l-57.817,0l4.021,-23.838l9.592,0l0,-95.283l-16.575,0l4.013,-23.833l30.592,0l65.683,93.417l0,-69.583l-11.413,0l-12.05,-23.833l60.338,0l0,23.833l-13.038,0l0,119.121l-17.992,0Z"/><path d="M448.422,422.42l-12.392,-41.888l0.008,-17.771l-43.829,0l0,-23.842l65.125,0l0,83.5l-8.913,0Z"/><path d="M333.346,312.423l6.771,-23.842l9.496,0l0,-95.283l-21.938,0l0,23.463l-23.833,-12.046l0,-35.254l115.179,0l0,32.029l-23.833,16.058l0,-24.25l-21.742,0l0,95.283l9.3,0l6.771,23.842l-56.171,0Z"/><path d="M341.92,481.879l6.771,-23.838l12.821,0l0,-28.742l23.833,0l0,28.742l13.021,0l6.771,23.838l-63.217,0Z"/><path d="M219.904,481.879l0,-119.121l-12.825,0l-6.767,-23.842l63.213,0l-6.767,23.842l-13.021,0l0,95.283l47.721,0l0,-88.4l23.838,0l0,112.238l-95.392,0Z"/><path d="M190.601,119.613l-8.354,-95.283l-36.346,0l-8.358,95.283l53.058,-0Zm-77.175,23.842l0,-11.925l8.908,-119.354l-0.004,-11.683l83.488,0l0,11.921l8.896,118.883l0.008,12.158l-101.296,0Z"/><path d="M82.607,312.423l0,-47.917l23.833,12.054l0,12.021l36.242,0l0,23.842l-60.075,0Z"/><path d="M273.046,277.123l23.833,-12.054l-0.002,16.633l-23.678,-0.001l-0.153,-4.578Z"/><path d="M107.778,482.899l6.771,-23.842l9.496,0l0,-95.283l-21.938,0l0,23.463l-23.833,-12.046l0,-35.254l115.179,0l0,32.029l-23.833,16.058l0,-24.25l-21.742,0l0,95.283l9.3,0l6.771,23.842l-56.171,0Z"/></svg>