<?xml version="1.0" encoding="UTF-8" standalone="no"?><!DOCTYPE svg PUBLIC "-//W3C//DTD SVG 1.1//EN" "http://www.w3.org/Graphics/SVG/1.1/DTD/svg11.dtd"><svg width="100%" height="100%" viewBox="0 0 179 142" version="1.1" xmlns="http://www.w3.org/2000/svg" xmlns:xlink="http://www.w3.org/1999/xlink" xml:space="preserve" xmlns:serif="http://www.serif.com/" style="fill-rule:evenodd;clip-rule:evenodd;stroke-linejoin:round;stroke-miterlimit:2;"><path d="M175.688,65.862c-10.934,13.579 -24.596,25.817 -39.159,26.552c-3.43,3.765 -7.311,7.206 -11.506,10.141c23.029,-0.011 44.855,-22.214 53.228,-34.272c0.717,-0.814 -1.712,-3.094 -2.563,-2.421" style="fill-rule:nonzero;"/><path d="M144.654,30.947c0.208,0.001 0.413,0.005 0.613,0.012c7.696,0.275 11.731,4.633 11.668,12.599c-0.029,3.618 -0.762,6.66 -4.252,9.749c-0.763,0.669 -1.58,1.288 -2.491,1.889c-4.048,2.72 -10.777,5.828 -21.818,10.075c-0.923,0.359 -1.876,0.715 -2.888,1.095c-1.241,0.476 -2.544,0.964 -3.893,1.461l-3.682,1.355l0.856,-3.828c1.244,-5.573 3.229,-11.196 5.746,-16.282c-0.465,-4.41 -2.407,-4.852 -4.361,-4.922c-0.105,-0.004 -0.528,-0.011 -0.529,-0.011c-0.53,0.015 -1.105,0.123 -1.713,0.325c-10.744,10.432 -17.207,23.412 -17.298,34.755c-0.053,6.76 2.259,12.575 6.53,16.488c3.654,-4.301 7.334,-10.47 10.441,-17.513c-0.043,-0.708 -0.062,-1.434 -0.055,-2.16c0.01,-1.418 0.154,-2.935 0.327,-4.629l0.146,-1.412c0,0 6.416,-1.975 7.122,-2.196c9.831,-3.084 17.16,-5.593 23.061,-7.896c0.752,-0.297 1.489,-0.594 2.207,-0.883l0.423,-0.17c14.83,-6.098 20.901,-11.297 20.954,-17.942c0.021,-2.682 -1.719,-5.543 -4.776,-7.853c-3.607,-2.724 -8.646,-4.334 -14.188,-4.532c-0.309,-0.012 -0.622,-0.018 -0.934,-0.021c-4.935,-0.039 -10.318,1.159 -15.693,3.48c0.652,0.229 1.289,0.474 1.908,0.736c2.19,-1.193 4.398,-1.788 6.569,-1.769" style="fill-rule:nonzero;"/><path d="M131.385,91.803c0.708,-0.753 1.421,-1.556 2.124,-2.39c5.534,-6.53 9.712,-13.997 11.896,-21.218c-5.217,1.894 -11.321,3.926 -18.993,6.323c-0.672,1.837 -1.386,3.636 -2.125,5.352c-0.655,1.527 -1.253,2.841 -1.823,4.01c-3.433,7.197 -7.385,13.291 -11.429,17.625c-0.689,0.737 -1.327,1.376 -1.95,1.95c-3.972,3.677 -7.931,5.577 -11.771,5.647c-0.26,0.004 -0.513,0.002 -0.764,-0.007c-6.886,-0.246 -10.795,-5.292 -10.726,-13.843c0.07,-8.879 3.437,-21.396 8.787,-32.664c5.88,-12.386 13.128,-21.165 19.889,-24.088c1.667,-0.718 3.343,-1.106 4.986,-1.156c0.196,-0.005 0.393,-0.006 0.587,0.001l0.27,0.016c5.257,0.187 8.931,3.027 10.343,7.988c0.392,1.349 0.628,2.896 0.699,4.596c0.021,0.451 0.027,0.919 0.022,1.389c-0.013,1.722 -0.158,3.604 -0.431,5.612c7.197,-2.896 12.011,-5.168 14.979,-7.075c-1.487,-4.285 -4.433,-7.719 -8.56,-9.964c-0.701,-0.388 -1.472,-0.75 -2.298,-1.078c-2.521,-1.03 -5.428,-1.698 -8.649,-1.987c-0.686,-0.069 -1.423,-0.117 -2.192,-0.144c-0.407,-0.015 -0.821,-0.025 -1.285,-0.028c-0.138,-0.001 -0.277,-0.002 -0.475,0.004c-12.813,0.063 -26.215,6.624 -36.771,18.001c-8.815,9.501 -14.606,21.314 -15.604,31.524c-0.998,-0.721 -2.113,-1.132 -3.229,-1.171c-3.226,-0.117 -7.243,1.356 -11.653,5.603c-1.22,1.278 -1.115,2.456 -0.267,3.367c2.975,3.043 5.603,7.543 5.54,9.302c-0.073,2.054 -1.733,3.316 -3.346,3.258c-5.426,-0.194 -18.477,-8.884 -28.873,-9.695l60.435,-51.75c0.765,-0.854 -3.09,-3.928 -3.843,-3.368l-9.386,7.887c-0.299,0.136 -0.592,0.125 -0.885,0.115c-6.746,-0.241 -22.306,-8.58 -32.57,-8.946c-8.36,-0.299 -29.189,15.549 -29.598,26.986c-0.157,4.4 2.482,8.606 7.615,8.789c3.079,0.111 7.736,-2.807 9.726,-5.085c1.079,-1.43 2.441,-2.556 1.173,-4.07c-2.404,-2.581 -5.331,-6.944 -5.268,-8.704c0.057,-1.613 1.429,-3.032 3.189,-2.97c7.92,0.284 18.352,8.292 26.124,8.571c2.053,0.073 2.797,-0.196 3.535,-0.316l-41.628,34.95c-9.092,3.786 -16.723,11.882 -16.906,17.016c-0.1,2.785 0.984,5.32 2.744,5.383c2.199,0.079 5.326,-1.131 7.285,-2.528c0.895,-0.41 0.644,-1.593 0.225,-2.195c-0.686,-1.346 -1.372,-2.692 -1.335,-3.719c0.026,-0.733 0.833,-2.759 3.033,-2.681c11.878,0.425 25.772,10.172 35.157,10.507c7.454,0.266 21.494,-10.238 25.521,-20.934c3.556,6.032 10.516,9.607 20.098,9.95l0.003,0c0.397,0.015 0.8,0.023 1.203,0.028c7.57,0.058 15.136,-1.996 22.484,-6.104c1.205,-0.68 2.283,-1.334 3.298,-2.002c4.164,-2.712 8.087,-6.032 11.663,-9.87" style="fill-rule:nonzero;"/><path d="M38.53,18.276l1.367,1.598l-0.148,0.12c-0.403,-0.352 -0.842,-0.541 -1.318,-0.568c-0.475,-0.026 -0.872,0.09 -1.19,0.349c-0.245,0.2 -0.386,0.423 -0.422,0.671c-0.037,0.247 0.015,0.456 0.154,0.628c0.088,0.108 0.191,0.183 0.311,0.226c0.162,0.056 0.365,0.077 0.609,0.063c0.177,-0.013 0.553,-0.085 1.126,-0.216c0.803,-0.185 1.405,-0.233 1.807,-0.147c0.401,0.09 0.733,0.297 0.996,0.618c0.333,0.409 0.46,0.89 0.382,1.445c-0.08,0.554 -0.363,1.03 -0.855,1.432c-0.153,0.124 -0.312,0.226 -0.475,0.306c-0.161,0.081 -0.382,0.162 -0.66,0.244c-0.154,0.047 -0.268,0.1 -0.343,0.161c-0.063,0.051 -0.109,0.128 -0.139,0.233c-0.031,0.106 -0.027,0.225 0.009,0.359l-0.133,0.108l-1.504,-1.846l0.134,-0.109c0.528,0.432 1.055,0.663 1.578,0.69c0.525,0.028 0.961,-0.1 1.31,-0.386c0.269,-0.219 0.424,-0.467 0.465,-0.744c0.04,-0.276 -0.019,-0.513 -0.179,-0.707c-0.093,-0.116 -0.215,-0.202 -0.364,-0.261c-0.15,-0.058 -0.326,-0.084 -0.531,-0.08c-0.205,0.004 -0.529,0.057 -0.974,0.16c-0.623,0.142 -1.094,0.216 -1.415,0.221c-0.32,0.006 -0.609,-0.044 -0.869,-0.149c-0.259,-0.105 -0.481,-0.273 -0.668,-0.499c-0.317,-0.391 -0.444,-0.839 -0.381,-1.347c0.062,-0.507 0.311,-0.937 0.747,-1.292c0.158,-0.13 0.328,-0.235 0.509,-0.318c0.135,-0.064 0.317,-0.122 0.543,-0.176c0.225,-0.054 0.371,-0.108 0.436,-0.16c0.063,-0.052 0.096,-0.111 0.101,-0.179c0.005,-0.068 -0.037,-0.187 -0.126,-0.36l0.11,-0.088Z" style="fill-rule:nonzero;"/><path d="M50.784,17.469l0.092,0.146l-2.796,1.752l-0.092,-0.146l0.178,-0.11c0.155,-0.097 0.263,-0.205 0.323,-0.319c0.045,-0.079 0.059,-0.176 0.039,-0.288c-0.011,-0.081 -0.099,-0.256 -0.268,-0.523l-2.203,-3.517c-0.171,-0.273 -0.293,-0.435 -0.366,-0.485c-0.07,-0.05 -0.167,-0.073 -0.287,-0.071c-0.12,0.004 -0.255,0.054 -0.405,0.148l-0.177,0.11l-0.092,-0.145l2.796,-1.75l0.092,0.145l-0.178,0.112c-0.155,0.095 -0.262,0.202 -0.323,0.316c-0.045,0.08 -0.06,0.177 -0.042,0.29c0.01,0.081 0.099,0.256 0.267,0.524l2.203,3.517c0.172,0.273 0.294,0.436 0.366,0.484c0.074,0.05 0.17,0.073 0.29,0.069c0.121,-0.004 0.256,-0.053 0.405,-0.147l0.178,-0.112Z" style="fill-rule:nonzero;"/><path d="M55.879,7.849l4.443,2.294l-1.112,-2.475c-0.155,-0.344 -0.31,-0.555 -0.463,-0.632c-0.209,-0.104 -0.472,-0.08 -0.79,0.069l-0.07,-0.157l1.901,-0.853l0.07,0.156c-0.229,0.14 -0.375,0.253 -0.435,0.341c-0.061,0.087 -0.091,0.197 -0.087,0.329c0.004,0.132 0.067,0.336 0.189,0.608l2.151,4.79l-0.143,0.065l-6.045,-3.043l1.644,3.657c0.148,0.331 0.324,0.521 0.527,0.57c0.204,0.048 0.403,0.027 0.598,-0.06l0.137,-0.06l0.07,0.156l-2.043,0.917l-0.069,-0.156c0.315,-0.147 0.507,-0.311 0.574,-0.495c0.068,-0.182 0.033,-0.426 -0.105,-0.731l-1.823,-4.061l-0.192,-0.099c-0.191,-0.098 -0.343,-0.151 -0.459,-0.156c-0.114,-0.006 -0.261,0.028 -0.438,0.101l-0.072,-0.158l2.042,-0.917Z" style="fill-rule:nonzero;"/><path d="M72.243,1.944l0.583,2.107l-0.174,0.048c-0.284,-0.512 -0.646,-0.867 -1.086,-1.06c-0.44,-0.194 -0.885,-0.228 -1.34,-0.102c-0.379,0.106 -0.698,0.312 -0.955,0.617c-0.256,0.306 -0.408,0.656 -0.457,1.048c-0.063,0.504 -0.018,1.031 0.135,1.584c0.151,0.544 0.357,1.021 0.617,1.43c0.262,0.409 0.572,0.686 0.927,0.835c0.356,0.146 0.767,0.156 1.232,0.027c0.384,-0.105 0.711,-0.287 0.982,-0.542c0.272,-0.256 0.528,-0.638 0.767,-1.145l0.145,0.525c-0.241,0.45 -0.525,0.807 -0.85,1.067c-0.325,0.263 -0.734,0.462 -1.228,0.599c-0.646,0.18 -1.259,0.209 -1.835,0.089c-0.575,-0.121 -1.067,-0.387 -1.476,-0.798c-0.408,-0.411 -0.688,-0.892 -0.841,-1.441c-0.161,-0.581 -0.16,-1.174 0,-1.777c0.158,-0.604 0.456,-1.121 0.892,-1.549c0.436,-0.43 0.943,-0.726 1.524,-0.886c0.427,-0.119 0.905,-0.152 1.43,-0.097c0.305,0.03 0.494,0.036 0.569,0.016c0.097,-0.028 0.169,-0.084 0.22,-0.175c0.051,-0.09 0.065,-0.214 0.045,-0.371l0.174,-0.049Z" style="fill-rule:nonzero;"/><path d="M82.026,0.706l0.308,2.55l0.126,-0.016c0.397,-0.048 0.669,-0.208 0.817,-0.478c0.149,-0.272 0.219,-0.653 0.209,-1.146l0.176,-0.02l0.397,3.277l-0.176,0.021c-0.081,-0.351 -0.195,-0.634 -0.339,-0.847c-0.147,-0.214 -0.303,-0.351 -0.47,-0.41c-0.167,-0.06 -0.398,-0.071 -0.698,-0.035l0.214,1.763c0.042,0.345 0.082,0.554 0.12,0.627c0.039,0.073 0.101,0.13 0.187,0.17c0.087,0.04 0.218,0.049 0.397,0.027l0.375,-0.046c0.584,-0.07 1.037,-0.262 1.357,-0.576c0.32,-0.313 0.523,-0.757 0.61,-1.33l0.17,-0.02l-0.041,2.024l-5.413,0.656l-0.02,-0.171l0.207,-0.026c0.182,-0.021 0.324,-0.07 0.427,-0.148c0.075,-0.055 0.128,-0.135 0.159,-0.245c0.025,-0.079 0.018,-0.275 -0.02,-0.588l-0.498,-4.119c-0.035,-0.284 -0.063,-0.457 -0.087,-0.52c-0.044,-0.103 -0.111,-0.18 -0.201,-0.228c-0.127,-0.072 -0.293,-0.097 -0.496,-0.072l-0.208,0.026l-0.02,-0.172l5.242,-0.634l0.224,1.852l-0.176,0.021c-0.143,-0.441 -0.309,-0.751 -0.494,-0.929c-0.186,-0.177 -0.432,-0.294 -0.739,-0.35c-0.179,-0.035 -0.505,-0.024 -0.979,0.034l-0.647,0.078Z" style="fill-rule:nonzero;"/><path d="M104.248,6.631l-3.689,-0.417l0.011,-0.103c1.285,-1.218 2.074,-2.046 2.369,-2.484c0.294,-0.437 0.467,-0.879 0.517,-1.322c0.037,-0.322 -0.032,-0.603 -0.207,-0.84c-0.177,-0.237 -0.409,-0.372 -0.698,-0.405c-0.476,-0.055 -0.871,0.142 -1.186,0.586l-0.164,-0.079c0.232,-0.573 0.534,-0.982 0.906,-1.227c0.371,-0.245 0.779,-0.342 1.222,-0.291c0.319,0.034 0.599,0.142 0.844,0.32c0.245,0.178 0.428,0.404 0.546,0.678c0.119,0.275 0.165,0.523 0.14,0.748c-0.046,0.408 -0.208,0.812 -0.484,1.208c-0.377,0.535 -1.147,1.253 -2.31,2.154l1.355,0.155c0.332,0.038 0.55,0.048 0.654,0.031c0.103,-0.016 0.19,-0.054 0.263,-0.112c0.072,-0.06 0.173,-0.19 0.302,-0.39l0.167,0.019l-0.558,1.771Z" style="fill-rule:nonzero;"/><path d="M114.427,5.394c0.266,-1.071 0.413,-1.698 0.444,-1.879c0.074,-0.426 0.072,-0.727 -0.007,-0.902c-0.051,-0.115 -0.161,-0.194 -0.33,-0.236c-0.129,-0.032 -0.241,-0.02 -0.334,0.034c-0.137,0.078 -0.258,0.245 -0.363,0.502c-0.106,0.255 -0.354,1.181 -0.747,2.774c-0.215,0.867 -0.329,1.456 -0.34,1.766c-0.009,0.224 0.021,0.383 0.088,0.478c0.066,0.092 0.168,0.156 0.308,0.191c0.15,0.036 0.275,0.016 0.374,-0.062c0.167,-0.138 0.305,-0.38 0.409,-0.728l0.498,-1.938Zm1.389,0.353c-0.15,0.611 -0.377,1.161 -0.681,1.648c-0.181,0.3 -0.386,0.532 -0.609,0.697c-0.225,0.164 -0.463,0.282 -0.713,0.35c-0.249,0.068 -0.504,0.069 -0.762,0.005c-0.295,-0.074 -0.544,-0.213 -0.744,-0.423c-0.201,-0.209 -0.359,-0.476 -0.474,-0.802c-0.081,-0.238 -0.13,-0.539 -0.145,-0.904c-0.016,-0.491 0.037,-0.984 0.158,-1.475c0.165,-0.665 0.408,-1.253 0.732,-1.763c0.267,-0.424 0.588,-0.72 0.963,-0.888c0.373,-0.168 0.734,-0.208 1.084,-0.122c0.356,0.088 0.657,0.291 0.906,0.609c0.249,0.319 0.395,0.7 0.438,1.146c0.063,0.613 0.013,1.254 -0.153,1.922" style="fill-rule:nonzero;"/><path d="M125.902,5.664l-1.854,4.815c-0.138,0.362 -0.212,0.599 -0.219,0.711c-0.006,0.114 0.029,0.22 0.106,0.323c0.077,0.102 0.226,0.197 0.448,0.283l0.136,0.051l-0.063,0.162l-3.099,-1.195l0.062,-0.161l0.156,0.061c0.252,0.096 0.442,0.137 0.571,0.12c0.13,-0.017 0.234,-0.068 0.311,-0.155c0.076,-0.087 0.186,-0.316 0.327,-0.687l1.177,-3.051c0.105,-0.272 0.157,-0.448 0.157,-0.525c0,-0.078 -0.025,-0.155 -0.079,-0.231c-0.052,-0.074 -0.124,-0.129 -0.217,-0.166c-0.148,-0.057 -0.344,-0.08 -0.591,-0.068l-0.018,-0.185l2.546,-0.157l0.143,0.055Z" style="fill-rule:nonzero;"/><path d="M133.079,12.549l0.078,-0.144c0.36,0.078 0.62,0.111 0.782,0.098c0.161,-0.014 0.331,-0.076 0.504,-0.188c0.174,-0.114 0.304,-0.251 0.392,-0.415c0.122,-0.227 0.144,-0.466 0.068,-0.717c-0.079,-0.252 -0.239,-0.445 -0.485,-0.576c-0.382,-0.207 -0.817,-0.18 -1.301,0.08l-0.123,-0.135c0.442,-0.351 0.879,-0.557 1.309,-0.62c0.431,-0.064 0.834,0.006 1.211,0.209c0.385,0.208 0.639,0.496 0.762,0.866c0.123,0.369 0.1,0.712 -0.069,1.025c-0.11,0.205 -0.275,0.371 -0.494,0.498c-0.217,0.127 -0.49,0.196 -0.816,0.206c0.235,0.329 0.375,0.652 0.419,0.97c0.045,0.319 -0.025,0.65 -0.211,0.994c-0.311,0.578 -0.787,0.957 -1.424,1.136c-0.638,0.18 -1.309,0.079 -2.013,-0.3c-0.469,-0.254 -0.77,-0.516 -0.902,-0.789c-0.096,-0.192 -0.099,-0.375 -0.005,-0.548c0.068,-0.125 0.171,-0.209 0.308,-0.248c0.137,-0.04 0.265,-0.028 0.383,0.035c0.09,0.049 0.165,0.114 0.223,0.195c0.031,0.045 0.122,0.248 0.271,0.609c0.15,0.36 0.341,0.603 0.571,0.728c0.203,0.109 0.419,0.122 0.65,0.042c0.231,-0.082 0.412,-0.246 0.545,-0.491c0.203,-0.374 0.257,-0.79 0.166,-1.247c-0.093,-0.457 -0.359,-0.881 -0.799,-1.273" style="fill-rule:nonzero;"/><path d="M33.128,26.36l1.438,0.605l-1.285,0.884l-0.606,1.439l-0.883,-1.285l-1.438,-0.606l1.285,-0.884l0.605,-1.438l0.884,1.285Z" style="fill-rule:nonzero;"/><path d="M140.901,15.77l1.437,0.604l-1.285,0.885l-0.605,1.438l-0.884,-1.285l-1.438,-0.606l1.285,-0.884l0.606,-1.438l0.884,1.286Z" style="fill-rule:nonzero;"/><path d="M65.171,127.625l0,0.134c-0.092,0.009 -0.17,0.033 -0.232,0.077c-0.063,0.044 -0.119,0.11 -0.168,0.199c-0.014,0.029 -0.09,0.217 -0.229,0.564l-1.543,4.064l-0.142,0l-1.221,-3.175l-1.343,3.175l-0.135,0l-1.62,-4.02c-0.164,-0.405 -0.279,-0.65 -0.345,-0.735c-0.064,-0.084 -0.175,-0.135 -0.33,-0.149l0,-0.134l2.136,0l0,0.134c-0.172,0.006 -0.287,0.032 -0.344,0.079c-0.057,0.047 -0.085,0.106 -0.085,0.177c0,0.091 0.059,0.286 0.178,0.584l0.966,2.389l0.774,-1.866l-0.204,-0.523c-0.111,-0.287 -0.197,-0.477 -0.258,-0.573c-0.061,-0.095 -0.13,-0.164 -0.208,-0.205c-0.079,-0.041 -0.195,-0.062 -0.347,-0.062l0,-0.134l2.386,0l0,0.134c-0.166,0.004 -0.287,0.016 -0.359,0.041c-0.051,0.016 -0.092,0.045 -0.121,0.085c-0.029,0.04 -0.043,0.086 -0.043,0.136c0,0.056 0.054,0.226 0.164,0.512l0.896,2.332l0.803,-2.11c0.085,-0.218 0.137,-0.367 0.156,-0.447c0.02,-0.079 0.029,-0.154 0.029,-0.221c0,-0.1 -0.034,-0.178 -0.102,-0.235c-0.067,-0.056 -0.196,-0.087 -0.388,-0.093l0,-0.134l1.279,0Z" style="fill-rule:nonzero;"/><path d="M71.083,127.908l0,2.005l0.098,0c0.313,0 0.539,-0.098 0.679,-0.294c0.141,-0.195 0.23,-0.485 0.269,-0.868l0.138,0l0,2.579l-0.138,0c-0.029,-0.281 -0.09,-0.511 -0.183,-0.691c-0.093,-0.178 -0.202,-0.298 -0.325,-0.361c-0.124,-0.061 -0.303,-0.093 -0.538,-0.093l0,1.389c0,0.271 0.012,0.437 0.035,0.497c0.023,0.061 0.065,0.11 0.129,0.149c0.062,0.039 0.164,0.057 0.305,0.057l0.294,0c0.46,0 0.829,-0.105 1.106,-0.319c0.277,-0.212 0.476,-0.537 0.597,-0.974l0.135,0l-0.222,1.567l-4.257,0l0,-0.134l0.164,0c0.143,0 0.257,-0.027 0.344,-0.077c0.063,-0.035 0.112,-0.092 0.146,-0.175c0.026,-0.058 0.04,-0.21 0.04,-0.457l0,-3.24c0,-0.223 -0.006,-0.361 -0.018,-0.411c-0.025,-0.085 -0.069,-0.149 -0.134,-0.196c-0.093,-0.067 -0.218,-0.102 -0.378,-0.102l-0.164,0l0,-0.134l4.123,0l0,1.456l-0.138,0c-0.07,-0.355 -0.169,-0.611 -0.296,-0.766c-0.127,-0.155 -0.307,-0.268 -0.54,-0.342c-0.135,-0.043 -0.389,-0.065 -0.762,-0.065l-0.509,0Z" style="fill-rule:nonzero;"/><path d="M79.621,127.904l0,3.844c0,0.203 0.01,0.328 0.029,0.374c0.019,0.046 0.052,0.081 0.098,0.105c0.065,0.035 0.16,0.055 0.283,0.055c0.404,0 0.714,-0.139 0.926,-0.415c0.291,-0.372 0.436,-0.951 0.436,-1.735c0,-0.633 -0.099,-1.138 -0.297,-1.516c-0.158,-0.294 -0.36,-0.495 -0.606,-0.602c-0.175,-0.075 -0.465,-0.111 -0.869,-0.11m-1.877,4.646l0,-0.133l0.163,0c0.142,0 0.252,-0.024 0.328,-0.069c0.077,-0.044 0.133,-0.105 0.169,-0.183c0.022,-0.051 0.033,-0.203 0.033,-0.457l0,-3.241c0,-0.251 -0.014,-0.409 -0.04,-0.471c-0.027,-0.064 -0.08,-0.118 -0.162,-0.166c-0.081,-0.047 -0.191,-0.072 -0.328,-0.072l-0.163,0l0,-0.133l2.204,0c0.588,0 1.061,0.08 1.42,0.24c0.438,0.196 0.771,0.493 0.997,0.89c0.226,0.397 0.339,0.846 0.339,1.347c0,0.346 -0.055,0.665 -0.166,0.957c-0.112,0.292 -0.256,0.533 -0.433,0.723c-0.176,0.19 -0.38,0.343 -0.611,0.458c-0.232,0.115 -0.515,0.204 -0.849,0.267c-0.148,0.029 -0.38,0.043 -0.697,0.043l-2.204,0Z" style="fill-rule:nonzero;"/><path d="M88.54,127.904l0,3.844c0,0.203 0.01,0.328 0.029,0.374c0.019,0.046 0.052,0.081 0.098,0.105c0.065,0.035 0.161,0.055 0.283,0.055c0.404,0 0.714,-0.139 0.927,-0.415c0.29,-0.372 0.435,-0.951 0.435,-1.735c0,-0.633 -0.099,-1.138 -0.297,-1.516c-0.158,-0.294 -0.359,-0.495 -0.606,-0.602c-0.175,-0.075 -0.465,-0.111 -0.869,-0.11m-1.877,4.646l0,-0.133l0.163,0c0.143,0 0.253,-0.024 0.328,-0.069c0.077,-0.044 0.134,-0.105 0.169,-0.183c0.023,-0.051 0.033,-0.203 0.033,-0.457l0,-3.241c0,-0.251 -0.014,-0.409 -0.04,-0.471c-0.027,-0.064 -0.08,-0.118 -0.162,-0.166c-0.08,-0.047 -0.19,-0.072 -0.328,-0.072l-0.163,0l0,-0.133l2.204,0c0.589,0 1.062,0.08 1.42,0.24c0.438,0.196 0.771,0.493 0.998,0.89c0.226,0.397 0.338,0.846 0.338,1.347c0,0.346 -0.055,0.665 -0.166,0.957c-0.112,0.292 -0.256,0.533 -0.433,0.723c-0.176,0.19 -0.38,0.343 -0.611,0.458c-0.232,0.115 -0.515,0.204 -0.849,0.267c-0.147,0.029 -0.38,0.043 -0.697,0.043l-2.204,0Z" style="fill-rule:nonzero;"/><path d="M98.182,132.417l0,0.134l-2.576,0l0,-0.134l0.164,0c0.143,0 0.258,-0.026 0.345,-0.077c0.063,-0.034 0.111,-0.092 0.145,-0.175c0.026,-0.058 0.041,-0.21 0.041,-0.457l0,-3.24c0,-0.252 -0.015,-0.409 -0.041,-0.472c-0.027,-0.063 -0.08,-0.118 -0.161,-0.166c-0.081,-0.047 -0.191,-0.071 -0.329,-0.071l-0.164,0l0,-0.134l2.576,0l0,0.134l-0.164,0c-0.143,0 -0.257,0.026 -0.345,0.077c-0.063,0.034 -0.112,0.092 -0.149,0.174c-0.027,0.058 -0.039,0.211 -0.039,0.458l0,3.24c0,0.252 0.013,0.409 0.042,0.472c0.027,0.063 0.082,0.118 0.162,0.166c0.082,0.047 0.192,0.071 0.329,0.071l0.164,0Z" style="fill-rule:nonzero;"/><path d="M103.997,127.625l2.43,3.055l0,-2.118c0,-0.295 -0.043,-0.495 -0.127,-0.599c-0.116,-0.14 -0.312,-0.208 -0.585,-0.204l0,-0.134l1.628,0l0,0.134c-0.21,0.028 -0.349,0.061 -0.42,0.104c-0.072,0.042 -0.128,0.112 -0.167,0.207c-0.041,0.096 -0.061,0.26 -0.061,0.492l0,4.101l-0.122,0l-3.332,-4.101l0,3.131c0,0.284 0.065,0.475 0.195,0.575c0.129,0.098 0.277,0.149 0.445,0.149l0.116,0l0,0.134l-1.748,0l0,-0.134c0.271,-0.003 0.46,-0.059 0.567,-0.168c0.106,-0.108 0.16,-0.294 0.16,-0.556l0,-3.475l-0.105,-0.131c-0.104,-0.131 -0.196,-0.217 -0.276,-0.258c-0.08,-0.042 -0.196,-0.064 -0.346,-0.07l0,-0.134l1.748,0Z" style="fill-rule:nonzero;"/><path d="M116.163,127.513l0,1.736l-0.134,0c-0.162,-0.474 -0.406,-0.836 -0.729,-1.083c-0.326,-0.247 -0.68,-0.37 -1.065,-0.37c-0.368,0 -0.675,0.104 -0.92,0.311c-0.244,0.207 -0.417,0.495 -0.519,0.867c-0.101,0.369 -0.152,0.75 -0.152,1.14c0,0.472 0.056,0.885 0.167,1.242c0.111,0.355 0.291,0.617 0.539,0.785c0.249,0.166 0.543,0.25 0.885,0.25c0.118,0 0.241,-0.013 0.365,-0.038c0.125,-0.026 0.252,-0.062 0.383,-0.111l0,-1.025c0,-0.192 -0.014,-0.318 -0.04,-0.375c-0.027,-0.058 -0.082,-0.108 -0.165,-0.154c-0.084,-0.046 -0.185,-0.07 -0.303,-0.07l-0.128,0l0,-0.133l2.394,0l0,0.133c-0.182,0.012 -0.308,0.038 -0.379,0.075c-0.072,0.038 -0.127,0.1 -0.166,0.187c-0.022,0.046 -0.033,0.159 -0.033,0.337l0,1.025c-0.314,0.141 -0.642,0.247 -0.982,0.318c-0.34,0.071 -0.693,0.107 -1.059,0.107c-0.467,0 -0.855,-0.064 -1.164,-0.19c-0.309,-0.128 -0.581,-0.295 -0.817,-0.502c-0.236,-0.207 -0.421,-0.44 -0.555,-0.699c-0.169,-0.334 -0.253,-0.708 -0.253,-1.122c0,-0.742 0.26,-1.367 0.781,-1.878c0.52,-0.511 1.175,-0.767 1.965,-0.767c0.244,0 0.465,0.02 0.66,0.059c0.107,0.019 0.279,0.074 0.519,0.165c0.238,0.091 0.379,0.136 0.423,0.136c0.067,0 0.13,-0.025 0.189,-0.075c0.058,-0.049 0.111,-0.142 0.159,-0.281l0.134,0Z" style="fill-rule:nonzero;"/><path d="M61.974,136.838l0,1.708l-0.142,0c-0.107,-0.445 -0.305,-0.787 -0.596,-1.025c-0.29,-0.237 -0.62,-0.355 -0.988,-0.355c-0.307,0 -0.59,0.088 -0.846,0.265c-0.257,0.177 -0.445,0.408 -0.563,0.693c-0.153,0.366 -0.229,0.773 -0.229,1.221c0,0.44 0.055,0.842 0.168,1.204c0.11,0.362 0.284,0.636 0.523,0.82c0.236,0.186 0.544,0.278 0.922,0.278c0.309,0 0.593,-0.067 0.852,-0.204c0.257,-0.134 0.529,-0.369 0.815,-0.7l0,0.424c-0.276,0.289 -0.563,0.498 -0.863,0.628c-0.299,0.129 -0.648,0.194 -1.048,0.194c-0.525,0 -0.992,-0.105 -1.4,-0.316c-0.408,-0.211 -0.722,-0.514 -0.944,-0.908c-0.222,-0.395 -0.333,-0.815 -0.333,-1.26c0,-0.47 0.124,-0.915 0.369,-1.337c0.246,-0.421 0.578,-0.749 0.995,-0.981c0.418,-0.233 0.861,-0.349 1.332,-0.349c0.346,0 0.712,0.076 1.096,0.226c0.223,0.087 0.365,0.13 0.425,0.13c0.078,0 0.145,-0.028 0.202,-0.085c0.057,-0.057 0.094,-0.147 0.111,-0.271l0.142,0Z" style="fill-rule:nonzero;"/><path d="M68.868,137.114c-0.451,0 -0.793,0.23 -1.028,0.69c-0.192,0.378 -0.288,0.92 -0.288,1.627c0,0.841 0.148,1.461 0.444,1.864c0.205,0.281 0.494,0.422 0.864,0.422c0.249,0 0.458,-0.061 0.625,-0.182c0.213,-0.155 0.379,-0.403 0.498,-0.743c0.118,-0.341 0.178,-0.783 0.178,-1.331c0,-0.652 -0.062,-1.139 -0.183,-1.463c-0.121,-0.322 -0.275,-0.551 -0.462,-0.684c-0.188,-0.134 -0.404,-0.2 -0.648,-0.2m-0.044,-0.232c0.785,-0.03 1.421,0.2 1.913,0.686c0.489,0.486 0.735,1.096 0.735,1.826c0,0.625 -0.184,1.176 -0.549,1.651c-0.484,0.63 -1.168,0.944 -2.052,0.944c-0.886,0 -1.571,-0.301 -2.056,-0.901c-0.383,-0.475 -0.573,-1.037 -0.573,-1.689c0,-0.731 0.248,-1.341 0.746,-1.829c0.497,-0.488 1.11,-0.718 1.836,-0.688" style="fill-rule:nonzero;"/><path d="M78.826,140.198l1.336,-3.247l2.005,0l0,0.134l-0.159,0c-0.146,0 -0.262,0.025 -0.349,0.076c-0.061,0.034 -0.109,0.092 -0.145,0.171c-0.027,0.057 -0.041,0.21 -0.041,0.454l0,3.247c0,0.252 0.014,0.409 0.041,0.473c0.026,0.062 0.081,0.117 0.163,0.165c0.082,0.047 0.192,0.071 0.331,0.071l0.159,0l0,0.134l-2.571,0l0,-0.134l0.16,0c0.145,0 0.261,-0.025 0.348,-0.077c0.061,-0.033 0.109,-0.092 0.146,-0.174c0.026,-0.059 0.04,-0.211 0.04,-0.458l0,-3.649l-1.889,4.492l-0.087,0l-1.918,-4.46l0,3.469c0,0.242 0.006,0.39 0.018,0.446c0.032,0.121 0.1,0.22 0.205,0.297c0.106,0.075 0.271,0.114 0.496,0.114l0,0.134l-1.686,0l0,-0.134l0.052,0c0.108,0.002 0.21,-0.016 0.305,-0.054c0.094,-0.037 0.165,-0.087 0.214,-0.149c0.048,-0.064 0.085,-0.153 0.112,-0.266c0.005,-0.027 0.008,-0.15 0.008,-0.371l0,-3.116c0,-0.249 -0.014,-0.405 -0.04,-0.467c-0.027,-0.061 -0.082,-0.116 -0.163,-0.163c-0.083,-0.047 -0.193,-0.071 -0.331,-0.071l-0.157,0l0,-0.134l2.013,0l1.384,3.247Z" style="fill-rule:nonzero;"/><path d="M88.078,137.234l0,2.128c0.081,0.005 0.14,0.008 0.182,0.008c0.295,0 0.524,-0.088 0.683,-0.264c0.16,-0.176 0.239,-0.447 0.239,-0.815c0,-0.366 -0.079,-0.633 -0.239,-0.803c-0.159,-0.169 -0.399,-0.254 -0.716,-0.254l-0.149,0Zm0,2.411l0,1.366c0,0.267 0.017,0.435 0.049,0.503c0.033,0.07 0.091,0.124 0.175,0.165c0.084,0.041 0.236,0.063 0.459,0.063l0,0.134l-2.502,0l0,-0.134c0.227,0 0.382,-0.022 0.463,-0.064c0.081,-0.043 0.138,-0.097 0.17,-0.166c0.033,-0.067 0.049,-0.234 0.049,-0.501l0,-3.196c0,-0.267 -0.016,-0.435 -0.049,-0.503c-0.032,-0.069 -0.09,-0.124 -0.172,-0.165c-0.083,-0.042 -0.236,-0.062 -0.461,-0.062l0,-0.134l2.147,0c0.706,0 1.214,0.126 1.521,0.377c0.308,0.252 0.461,0.567 0.461,0.945c0,0.319 -0.099,0.593 -0.297,0.82c-0.2,0.228 -0.473,0.383 -0.822,0.465c-0.234,0.059 -0.631,0.087 -1.191,0.087" style="fill-rule:nonzero;"/><path d="M96.6,140.205l-0.734,-1.696l-0.755,1.696l1.489,0Zm0.124,0.269l-1.741,0l-0.206,0.479c-0.068,0.16 -0.102,0.293 -0.102,0.397c0,0.137 0.055,0.239 0.167,0.305c0.065,0.038 0.226,0.068 0.484,0.087l0,0.134l-1.639,0l0,-0.134c0.177,-0.026 0.322,-0.1 0.436,-0.221c0.114,-0.119 0.254,-0.367 0.421,-0.742l1.761,-3.929l0.07,0l1.775,4.038c0.17,0.382 0.31,0.624 0.419,0.723c0.082,0.075 0.198,0.119 0.348,0.131l0,0.134l-2.382,0l0,-0.134l0.098,0c0.191,0 0.325,-0.026 0.403,-0.081c0.053,-0.038 0.08,-0.094 0.08,-0.166c0,-0.044 -0.008,-0.089 -0.022,-0.135c-0.005,-0.021 -0.041,-0.112 -0.109,-0.272l-0.261,-0.614Z" style="fill-rule:nonzero;"/><path d="M104.685,136.951l2.43,3.054l0,-2.117c0,-0.295 -0.042,-0.495 -0.127,-0.6c-0.116,-0.14 -0.312,-0.207 -0.585,-0.203l0,-0.134l1.628,0l0,0.134c-0.209,0.027 -0.349,0.061 -0.42,0.103c-0.072,0.042 -0.128,0.113 -0.167,0.207c-0.04,0.096 -0.061,0.26 -0.061,0.493l0,4.101l-0.122,0l-3.331,-4.101l0,3.13c0,0.285 0.064,0.475 0.194,0.575c0.129,0.099 0.278,0.149 0.445,0.149l0.116,0l0,0.134l-1.748,0l0,-0.134c0.272,-0.003 0.46,-0.059 0.567,-0.168c0.107,-0.108 0.16,-0.294 0.16,-0.556l0,-3.475l-0.105,-0.131c-0.104,-0.13 -0.196,-0.217 -0.276,-0.258c-0.08,-0.041 -0.195,-0.063 -0.346,-0.069l0,-0.134l1.748,0Z" style="fill-rule:nonzero;"/><path d="M117.302,136.951l0,0.134c-0.162,0.022 -0.288,0.069 -0.375,0.141c-0.121,0.102 -0.311,0.38 -0.573,0.832l-1.069,1.784l0,1.191c0,0.255 0.015,0.413 0.041,0.474c0.027,0.062 0.079,0.116 0.158,0.164c0.078,0.047 0.183,0.071 0.314,0.071l0.276,0l0,0.134l-2.764,0l0,-0.134l0.258,0c0.145,0 0.26,-0.025 0.345,-0.077c0.062,-0.033 0.113,-0.092 0.149,-0.174c0.027,-0.059 0.04,-0.211 0.04,-0.458l0,-0.987l-1.159,-2.111c-0.23,-0.416 -0.392,-0.662 -0.487,-0.736c-0.094,-0.073 -0.22,-0.111 -0.377,-0.114l0,-0.134l2.361,0l0,0.134l-0.105,0c-0.144,0 -0.243,0.02 -0.301,0.062c-0.056,0.041 -0.085,0.084 -0.085,0.13c0,0.088 0.097,0.307 0.29,0.658l0.891,1.631l0.886,-1.485c0.221,-0.363 0.33,-0.605 0.33,-0.724c0,-0.065 -0.031,-0.119 -0.093,-0.163c-0.083,-0.06 -0.235,-0.097 -0.455,-0.109l0,-0.134l1.504,0Z" style="fill-rule:nonzero;"/></svg>