<svg width="274" height="144" viewBox="0 0 274 144" fill="none" xmlns="http://www.w3.org/2000/svg">
<path d="M22.8231 72.595V79.48C22.8231 88.0367 23.5314 96.055 24.9481 103.535C26.4214 110.958 28.6598 117.985 31.6631 124.615C34.7231 131.245 38.5764 137.705 43.2231 143.995H21.0381C16.8448 138.385 13.3031 132.378 10.4131 125.975C7.57976 119.572 5.45476 112.602 4.03809 105.065C2.62143 97.5283 1.91309 89.255 1.91309 80.245V71.915C1.91309 62.905 2.62143 54.66 4.03809 47.18C5.51143 39.6433 7.69309 32.6733 10.5831 26.27C13.4731 19.81 17.0431 13.775 21.2931 8.16499H43.2231C38.5764 14.3983 34.7231 20.8583 31.6631 27.545C28.6598 34.175 26.4214 41.2017 24.9481 48.625C23.5314 56.0483 22.8231 64.0383 22.8231 72.595ZM69.3141 72.595V79.48C69.3141 88.0367 70.0224 96.055 71.4391 103.535C72.9124 110.958 75.1508 117.985 78.1541 124.615C81.2141 131.245 85.0674 137.705 89.7141 143.995H67.5291C63.3358 138.385 59.7941 132.378 56.9041 125.975C54.0708 119.572 51.9458 112.602 50.5291 105.065C49.1124 97.5283 48.4041 89.255 48.4041 80.245V71.915C48.4041 62.905 49.1124 54.66 50.5291 47.18C52.0024 39.6433 54.1841 32.6733 57.0741 26.27C59.9641 19.81 63.5341 13.775 67.7841 8.16499H89.7141C85.0674 14.3983 81.2141 20.8583 78.1541 27.545C75.1508 34.175 72.9124 41.2017 71.4391 48.625C70.0224 56.0483 69.3141 64.0383 69.3141 72.595ZM110.365 123H87.8401L119.885 14.37H153.8L185.76 123H163.235L137.905 29.075H135.865L110.365 123ZM161.28 95.29H112.15V77.525H161.28V95.29ZM204.443 72.595C204.443 64.0383 203.706 56.0483 202.233 48.625C200.816 41.2017 198.606 34.175 195.603 27.545C192.6 20.8583 188.746 14.3983 184.043 8.16499H205.973C210.223 13.775 213.793 19.81 216.683 26.27C219.573 32.6733 221.726 39.6433 223.143 47.18C224.616 54.66 225.353 62.905 225.353 71.915V80.245C225.353 89.255 224.645 97.5283 223.228 105.065C221.811 112.602 219.686 119.572 216.853 125.975C214.02 132.378 210.478 138.385 206.228 143.995H184.043C188.746 137.705 192.6 131.245 195.603 124.615C198.606 117.985 200.816 110.958 202.233 103.535C203.706 96.055 204.443 88.0367 204.443 79.48V72.595ZM251.1 72.595C251.1 64.0383 250.363 56.0483 248.89 48.625C247.473 41.2017 245.263 34.175 242.26 27.545C239.257 20.8583 235.403 14.3983 230.7 8.16499H252.63C256.88 13.775 260.45 19.81 263.34 26.27C266.23 32.6733 268.383 39.6433 269.8 47.18C271.273 54.66 272.01 62.905 272.01 71.915V80.245C272.01 89.255 271.302 97.5283 269.885 105.065C268.468 112.602 266.343 119.572 263.51 125.975C260.677 132.378 257.135 138.385 252.885 143.995H230.7C235.403 137.705 239.257 131.245 242.26 124.615C245.263 117.985 247.473 110.958 248.89 103.535C250.363 96.055 251.1 88.0367 251.1 79.48V72.595Z" fill="#FA2A2A"/>
</svg>
