<?xml version="1.0" encoding="UTF-8" standalone="no"?><!DOCTYPE svg PUBLIC "-//W3C//DTD SVG 1.1//EN" "http://www.w3.org/Graphics/SVG/1.1/DTD/svg11.dtd"><svg width="100%" height="100%" viewBox="0 0 442 169" version="1.1" xmlns="http://www.w3.org/2000/svg" xmlns:xlink="http://www.w3.org/1999/xlink" xml:space="preserve" xmlns:serif="http://www.serif.com/" style="fill-rule:evenodd;clip-rule:evenodd;stroke-linejoin:round;stroke-miterlimit:2;"><path d="M115.706,134.903l0,7.651l7.205,0l0,-7.651l2.401,0l0,15.3l-2.401,0l0,-5.1l-7.205,0l0,5.1l-2.402,0l0,-15.3l2.402,0Zm7.205,0l-7.205,0l0,-2.55l7.205,0l0,2.55Zm17.911,10.2l2.403,0l0,5.1l-2.403,0l0,-5.1Zm0,-10.2l-7.21,-0.001l0,5.101l7.21,0l0,5.1l-2.403,0l0,-2.55l-4.806,0l0,7.649l-2.403,0l0,-17.85l9.613,0l0,2.55Zm0,5.1l0,-5.1l2.403,0.001l0,5.1l-2.403,0Zm76.545,-5.101l0.001,7.651l7.134,0l0,-7.651l2.379,0l0,15.3l-2.379,0l0,-5.1l-7.134,0l0,5.1l-2.379,0l0,-15.3l2.378,0Zm7.135,0l-7.135,0l-0.001,-2.55l7.135,0l0,2.55Zm59.573,0.001l-7.207,-0.001l0,5.101l7.207,0l0,2.55l-7.207,0l0,7.649l-2.402,0l0,-17.85l9.609,0l0,2.55Zm0,5.1l0,-5.1l2.402,0.001l0,5.1l-2.402,0Zm46.507,-5.101l0,12.75l-2.372,0l0,-12.75l2.372,0Zm0,12.75l7.115,0l0,2.55l-7.115,0l0.001,-2.55Zm7.115,0l0,-12.75l2.372,0l0,12.75l-2.372,0Zm0,-12.75l-7.115,0l-0.001,-2.55l7.115,0l0,2.55Zm-24.988,12.75l-2.394,0l0,-2.55l2.394,0l0,2.55Zm7.18,0l0.001,2.55l-7.181,0l0,-2.55l7.18,0Zm0,-5.1l2.393,0l0,5.1l-2.393,0l0,-5.1Zm-7.18,-2.55l7.181,0l-0.001,2.55l-7.18,0l0,-2.55Zm0,-5.1l0,5.1l-2.394,0l0,-5.1l2.394,-0.001Zm7.18,0l2.393,0.001l0,2.55l-2.394,0l0.001,-2.55Zm-7.18,0l-0,-2.55l7.181,0l-0.001,2.55l-7.18,0Zm81.408,-74.772l0,5.992l-5.993,0l0,29.96l5.993,0l0,5.993l-23.968,0l0,-5.993l5.991,0l0,-29.96l-5.991,0l0,-5.992l23.968,0Zm-394.053,54.019l441.871,0l0,6.009l-441.871,0l0,-6.009Zm0,48.064l441.871,0l0,6.009l-441.871,0l0,-6.009Zm161.001,-29.862l0,2.55l-4.765,0l0,15.3l-2.382,0l0,-15.3l-4.765,0l0,-2.55l11.911,0Zm17.914,0l0,2.55l-9.565,0l0,5.1l7.174,0l0,2.551l-7.174,0l0,5.1l9.565,0l0,2.55l-11.956,0l0,-17.85l11.956,0Zm56.332,0l0,15.3l9.393,0l0,2.55l-11.896,0l0,-17.85l2.503,0Zm68.954,0l0,2.55l-9.498,0l0,5.1l7.122,0l0,2.551l-7.122,0l0,5.1l9.498,0l0,2.55l-11.872,0l0,-17.85l11.872,0Zm-292.28,-132.353l-0,35.952l17.978,0l0,5.993l-29.961,0l0,-41.945l11.984,0Zm65.699,0l0,5.992l5.991,0l0,35.953l-11.984,0l0,-11.984l-11.985,0l0,11.984l-11.984,0l0,-35.953l5.992,0l0,-5.992l23.969,0Zm-17.978,23.968l11.984,0l0,-17.976l-11.984,0l0,17.976Zm-29.858,36.164l-0,5.992l5.971,0l0,5.992l-11.939,0l0,-5.992l-11.942,0l0,29.96l11.918,0l0,-5.992l11.97,0l0,5.992l-5.973,0l0,5.993l-23.862,0l0,-5.993l-5.991,0l0,-29.96l5.965,0l0,-5.992l23.883,0Zm47.771,0l-0,5.992l5.97,0l0,35.953l-11.9,0l0,-11.985l-11.984,0l0,11.985l-11.984,0l0,-35.953l5.992,0l0,-5.992l23.905,0Zm-17.914,23.968l11.984,0l0,-17.976l-11.984,0l0,17.976Zm65.659,-23.968l0,5.992l5.993,0l0,11.985l-5.993,0l0,11.984l5.993,0l0,11.985l-11.939,0l0,-11.985l-5.977,0l0,-5.992l-5.916,0l0,17.976l-11.982,0l0,-41.945l29.822,0Zm-17.839,17.976l11.872,0l0,-11.985l-11.872,0l0,11.985Zm47.76,-17.976l0,5.992l5.992,0l0,5.992l5.993,0l0,-11.984l11.985,0l0,41.945l-11.985,0l0,-17.976l-5.993,0l0,-5.992l-5.992,0l0,23.968l-11.984,0l0,-41.945l11.984,0Zm59.861,0l0,5.992l-5.993,0l0,29.96l5.993,0l0,5.993l-23.968,0l0,-5.993l5.991,0l0,-29.96l-5.991,0l0,-5.992l23.968,0Zm41.74,0l0,5.992l5.993,0l0,5.992l-11.985,0l0,-5.992l-11.986,0l0,29.96l11.986,0l0,-5.992l11.985,0l0,5.992l-5.993,0l0,5.993l-23.968,0l0,-5.993l-5.992,0l0,-29.96l5.992,0l0,-5.992l23.968,0Zm53.729,0l0,5.992l-23.969,0l0,11.985l17.978,0l0,5.992l-17.978,0l0,11.984l23.969,0l0,5.993l-35.953,0l0,-41.945l35.953,0Zm41.757,0l-0,5.992l5.992,0l0,11.985l-5.992,0l0,11.984l5.992,0l0,11.985l-11.985,0l0,-11.985l-5.993,0l0,-5.992l-5.993,0l0,17.976l-11.982,0l0,-41.945l29.961,0Zm-17.979,17.976l11.985,0l0,-11.985l-11.985,0l0,11.985Zm101.612,-17.976l0,5.992l5.993,0l0,35.953l-11.985,0l0,-11.985l-11.985,0l0,11.985l-11.984,0l0,-35.953l5.993,0l0,-5.992l23.967,0Zm-17.976,23.968l11.985,0l0,-17.976l-11.985,0l0,17.976Z" style="fill:#020000;"/></svg>